<svg width="64" height="64" viewBox="0 0 64 64" fill="none" xmlns="http://www.w3.org/2000/svg">
<g clip-path="url(#clip0_10_13)">
<path d="M48.8339 0.75H15.1663C7.21752 0.75 0.75 7.21749 0.75 15.1674V48.8341C0.75 56.7826 7.21752 63.25 15.1662 63.25H48.8338C56.7825 63.25 63.25 56.7826 63.25 48.8341V15.1674C63.2501 7.21749 56.7826 0.75 48.8339 0.75ZM15.1663 5.81535H48.8339C53.9898 5.81535 58.1846 10.0101 58.1846 15.1674V31.8609H54.7516V25.7942C54.7516 24.2509 53.4951 22.9958 51.9517 22.9958L36.4408 26.2315C35.9625 25.7515 35.3013 25.4536 34.5717 25.4536H29.4271C28.6994 25.4536 28.0395 25.7501 27.5614 26.2286L12.3198 23.0241L12.047 22.9958C10.5037 22.9958 9.24856 24.2509 9.24856 25.7942V31.8609H5.81548V15.1674C5.81548 10.0102 10.0103 5.81535 15.1663 5.81535ZM29.6023 35.9077V28.0991L34.3978 28.0926V35.9012L29.6023 35.9077ZM40.5968 30.6772H37.2119V28.7707L52.0168 25.657C52.0677 25.6825 52.1059 25.7362 52.1059 25.7942V38.2061C52.1059 38.264 52.0677 38.3177 52.0168 38.3432L37.2119 35.2297V33.3232H40.5968C41.3276 33.3232 41.9198 32.731 41.9198 32.0003C41.9198 31.2696 41.3276 30.6772 40.5968 30.6772ZM26.7884 30.6772H23.4033C22.6726 30.6772 22.0804 31.2694 22.0804 32.0001C22.0804 32.7308 22.6726 33.323 23.4033 33.323H26.7883V35.2295L11.9819 38.343C11.9311 38.3175 11.8943 38.2638 11.8943 38.2058V25.7939C11.8943 25.736 11.9311 25.6823 11.9819 25.6568L26.7883 28.7704V30.6772H26.7884Z" fill="#AC7C4C"/>
</g>
<defs>
<clipPath id="clip0_10_13">
<rect width="64" height="64" fill="white"/>
</clipPath>
</defs>
</svg>
