<svg width="24" height="24" viewBox="0 0 24 24" fill="none" xmlns="http://www.w3.org/2000/svg">
<path fill-rule="evenodd" clip-rule="evenodd" d="M24.002 3C24.002 2.204 23.686 1.441 23.124 0.879C22.561 0.316 21.798 0 21.002 0C16.818 0 7.184 0 3 0C2.204 0 1.441 0.316 0.879 0.879C0.316 1.441 0 2.204 0 3C0 7.184 0 16.816 0 21C0 21.796 0.316 22.559 0.879 23.121C1.441 23.684 2.204 24 3 24C7.184 24 16.818 24 21.002 24C21.798 24 22.561 23.684 23.124 23.121C23.686 22.559 24.002 21.796 24.002 21V3ZM4.999 17.998C5.552 17.998 6 18.447 6 18.999C6 19.552 5.552 20 4.999 20C4.447 20 3.998 19.552 3.998 18.999C3.998 18.447 4.447 17.998 4.999 17.998ZM8.999 17.998C9.552 17.998 10 18.447 10 18.999C10 19.552 9.552 20 8.999 20C8.447 20 7.998 19.552 7.998 18.999C7.998 18.447 8.447 17.998 8.999 17.998ZM12.999 17.998C13.552 17.998 14 18.447 14 18.999C14 19.552 13.552 20 12.999 20C12.447 20 11.998 19.552 11.998 18.999C11.998 18.447 12.447 17.998 12.999 17.998ZM18 12.937L15.652 15.285C15.262 15.675 15.262 16.309 15.652 16.699C16.043 17.089 16.676 17.089 17.067 16.699L19.706 14.059C19.9 13.865 19.998 13.612 19.999 13.358C20 13.344 20 13.33 20 13.316V5C20 4.448 19.552 4 19 4C18.448 4 18 4.448 18 5V12.937ZM10.006 4C6.695 4 4.006 6.689 4.006 10C4.006 13.311 6.695 16 10.006 16C13.318 16 16.006 13.311 16.006 10C16.006 6.689 13.318 4 10.006 4ZM10.006 7.994C8.902 7.994 8.005 8.891 8.005 9.995C8.005 11.099 8.902 11.996 10.006 11.996C11.11 11.996 12.007 11.099 12.007 9.995C12.007 8.891 11.11 7.994 10.006 7.994Z" fill="#AC7C4C"/>
</svg>
