<svg width="24" height="24" viewBox="0 0 24 24" fill="none" xmlns="http://www.w3.org/2000/svg">
<path fill-rule="evenodd" clip-rule="evenodd" d="M24.002 3C24.002 2.204 23.686 1.441 23.124 0.879C22.561 0.316 21.798 0 21.002 0C16.818 0 7.184 0 3 0C2.204 0 1.441 0.316 0.879 0.879C0.316 1.441 0 2.204 0 3C0 7.184 0 16.816 0 21C0 21.796 0.316 22.559 0.879 23.121C1.441 23.684 2.204 24 3 24C7.184 24 16.818 24 21.002 24C21.798 24 22.561 23.684 23.124 23.121C23.686 22.559 24.002 21.796 24.002 21V3Z" fill="#AC7C4C"/>
<path d="M9.09972 4.56535C9.0768 4.53652 9.06141 4.50244 9.05493 4.46619C9.04845 4.42994 9.05108 4.39264 9.06259 4.35766C9.0741 4.32267 9.09413 4.2911 9.12087 4.26578C9.14761 4.24045 9.18023 4.22217 9.21578 4.21259L11.019 3.72443L12.0283 2.11064C12.0495 2.08048 12.0778 2.05586 12.1105 2.03888C12.1433 2.02189 12.1797 2.01302 12.2166 2.01302C12.2535 2.01302 12.2899 2.02189 12.3227 2.03888C12.3554 2.05586 12.3837 2.08048 12.4049 2.11064L13.4143 3.72443L15.2175 4.21281C15.2531 4.2224 15.2857 4.24068 15.3124 4.266C15.3392 4.29132 15.3592 4.3229 15.3707 4.35788C15.3822 4.39286 15.3848 4.43016 15.3784 4.46641C15.3719 4.50267 15.3565 4.53674 15.3336 4.56557L14.1511 6.05286L14.2572 7.97209C14.2589 8.00224 14.2544 8.03241 14.244 8.06076C14.2336 8.08911 14.2175 8.11504 14.1967 8.13697C14.176 8.15891 14.151 8.17638 14.1232 8.18832C14.0955 8.20026 14.0656 8.20643 14.0354 8.20644C14.0072 8.20651 13.9792 8.20105 13.953 8.19035L12.2167 7.49567L10.4803 8.19035C10.4457 8.20426 10.4081 8.20921 10.371 8.20473C10.334 8.20025 10.2986 8.1865 10.2683 8.16473C10.238 8.14297 10.2136 8.11391 10.1975 8.08023C10.1814 8.04656 10.174 8.00936 10.1761 7.97209L10.2822 6.05286L9.09972 4.56535ZM2.9519 11.0916C2.94981 11.1288 2.95717 11.166 2.97328 11.1997C2.98939 11.2334 3.01374 11.2625 3.04407 11.2842C3.0744 11.306 3.10973 11.3197 3.1468 11.3242C3.18386 11.3287 3.22145 11.3237 3.25609 11.3098L4.71334 10.7268L6.17077 11.31C6.19695 11.3207 6.22497 11.3262 6.25324 11.3261C6.28343 11.3261 6.31331 11.3199 6.34104 11.308C6.36876 11.296 6.39376 11.2785 6.41451 11.2566C6.43526 11.2347 6.45133 11.2088 6.46172 11.1804C6.47212 11.1521 6.47662 11.1219 6.47497 11.0917L6.38579 9.47973L7.37884 8.23047C7.40177 8.20165 7.41717 8.16757 7.42366 8.13131C7.43014 8.09505 7.42751 8.05775 7.416 8.02276C7.40449 7.98777 7.38446 7.95619 7.35772 7.93086C7.33097 7.90553 7.29835 7.88725 7.26278 7.87767L5.74923 7.46808L4.90179 6.11333C4.88051 6.08317 4.85229 6.05856 4.81952 6.04157C4.78674 6.02458 4.75037 6.01571 4.71345 6.01571C4.67654 6.01571 4.64016 6.02458 4.60739 6.04157C4.57461 6.05856 4.5464 6.08317 4.52512 6.11333L3.67768 7.46808L2.16435 7.87767C2.12878 7.88725 2.09616 7.90553 2.06941 7.93086C2.04267 7.95619 2.02264 7.98777 2.01113 8.02276C1.99962 8.05775 1.99699 8.09505 2.00347 8.13131C2.00996 8.16757 2.02536 8.20165 2.04829 8.23047L3.04085 9.47955L2.9519 11.0916ZM22.3989 8.02243C22.3873 7.98748 22.3673 7.95593 22.3406 7.93063C22.3138 7.90533 22.2812 7.88707 22.2457 7.87749L20.7324 7.4679L19.8849 6.11316C19.8637 6.08299 19.8354 6.05838 19.8027 6.04139C19.7699 6.0244 19.7335 6.01553 19.6966 6.01553C19.6597 6.01553 19.6233 6.0244 19.5905 6.04139C19.5578 6.05838 19.5295 6.08299 19.5083 6.11316L18.6608 7.4679L17.1473 7.87749C17.1117 7.88708 17.0791 7.90536 17.0523 7.93068C17.0256 7.95601 17.0056 7.98759 16.9941 8.02258C16.9825 8.05757 16.9799 8.09487 16.9864 8.13113C16.9929 8.16739 17.0083 8.20147 17.0312 8.2303L18.0243 9.47955L17.9351 11.0916C17.9334 11.1217 17.9379 11.1519 17.9483 11.1802C17.9587 11.2086 17.9748 11.2345 17.9955 11.2564C18.0163 11.2784 18.0413 11.2958 18.069 11.3078C18.0967 11.3197 18.1266 11.3259 18.1568 11.3259C18.1851 11.326 18.2131 11.3205 18.2393 11.3098L19.6964 10.7268L21.1539 11.3098C21.1885 11.3237 21.2261 11.3287 21.2632 11.3242C21.3002 11.3197 21.3356 11.306 21.3659 11.2842C21.3962 11.2625 21.4206 11.2334 21.4367 11.1997C21.4528 11.166 21.4602 11.1288 21.4581 11.0916L21.3692 9.47955L22.362 8.2303C22.3848 8.20137 22.4001 8.16726 22.4066 8.13099C22.413 8.09473 22.4103 8.05743 22.3989 8.02243ZM5.98415 3.77736C6.15992 3.77736 6.33173 3.72524 6.47787 3.62759C6.62402 3.52994 6.73792 3.39114 6.80518 3.22876C6.87244 3.06638 6.89004 2.88769 6.85575 2.71531C6.82146 2.54292 6.73683 2.38457 6.61254 2.26029C6.48826 2.136 6.32991 2.05137 6.15752 2.01708C5.98514 1.98279 5.80645 2.00039 5.64407 2.06765C5.48168 2.13491 5.34289 2.24881 5.24524 2.39496C5.14759 2.5411 5.09547 2.71291 5.09547 2.88868C5.09547 3.12437 5.1891 3.35041 5.35576 3.51707C5.52242 3.68373 5.74846 3.77736 5.98415 3.77736ZM18.4491 3.77736C18.6249 3.77736 18.7967 3.72524 18.9429 3.62759C19.089 3.52994 19.2029 3.39114 19.2702 3.22876C19.3374 3.06638 19.355 2.88769 19.3207 2.71531C19.2865 2.54292 19.2018 2.38457 19.0775 2.26029C18.9532 2.136 18.7949 2.05137 18.6225 2.01708C18.4501 1.98279 18.2714 2.00039 18.1091 2.06765C17.9467 2.13491 17.8079 2.24881 17.7102 2.39496C17.6126 2.5411 17.5605 2.71291 17.5605 2.88868C17.5605 3.12437 17.6541 3.35041 17.8208 3.51707C17.9874 3.68373 18.2134 3.77736 18.4491 3.77736ZM12.2049 9.10942C12.146 9.10942 12.0895 9.13283 12.0478 9.17449C12.0061 9.21616 11.9827 9.27267 11.9827 9.33159V18.6627C11.9827 18.7216 12.0061 18.7781 12.0478 18.8198C12.0895 18.8615 12.146 18.8849 12.2049 18.8849C12.2638 18.8849 12.3203 18.8615 12.362 18.8198C12.4037 18.7781 12.4271 18.7216 12.4271 18.6627V9.33159C12.4271 9.27267 12.4037 9.21616 12.362 9.17449C12.3203 9.13283 12.2638 9.10942 12.2049 9.10942ZM5.06597 11.887C5.03663 11.8359 4.98819 11.7985 4.93131 11.7832C4.87442 11.7678 4.81376 11.7756 4.76266 11.805C4.71157 11.8343 4.67422 11.8827 4.65884 11.9396C4.64345 11.9965 4.6513 12.0572 4.68064 12.1083C6.28857 14.9076 8.70115 18.9695 11.0806 21.9176C11.1015 21.9434 11.1279 21.9642 11.1579 21.9785C11.1879 21.9927 11.2207 22.0001 11.2539 22C11.3046 22.0001 11.3538 21.9826 11.3932 21.9505C11.439 21.9135 11.4683 21.8598 11.4746 21.8012C11.4808 21.7427 11.4635 21.684 11.4265 21.6381C9.06675 18.7148 6.6663 14.6728 5.06597 11.887ZM2.60433 15.9069C2.5868 15.8827 2.56459 15.8624 2.53903 15.847C2.51346 15.8317 2.48506 15.8216 2.45553 15.8174C2.42599 15.8133 2.39592 15.8151 2.36711 15.8228C2.33829 15.8306 2.31133 15.844 2.28782 15.8624C2.26432 15.8807 2.24475 15.9036 2.23028 15.9297C2.21582 15.9558 2.20676 15.9845 2.20364 16.0142C2.20051 16.0439 2.2034 16.0738 2.21211 16.1024C2.22083 16.1309 2.2352 16.1574 2.25437 16.1802C2.28148 16.2149 4.99456 19.669 7.41523 21.5478C7.43813 21.5669 7.46464 21.5812 7.49319 21.5899C7.52173 21.5985 7.55172 21.6013 7.58136 21.5981C7.61101 21.5949 7.63971 21.5858 7.66575 21.5712C7.69179 21.5567 7.71465 21.5371 7.73294 21.5136C7.75124 21.49 7.76462 21.463 7.77226 21.4342C7.77991 21.4054 7.78168 21.3753 7.77746 21.3458C7.77324 21.3163 7.76313 21.2879 7.74771 21.2624C7.7323 21.2369 7.71191 21.2147 7.68775 21.1972C5.31093 19.3518 2.63122 15.9407 2.60433 15.9069ZM19.6471 11.805C19.6218 11.7904 19.5939 11.7809 19.565 11.7771C19.536 11.7733 19.5066 11.7753 19.4784 11.7829C19.4502 11.7906 19.4238 11.8037 19.4007 11.8215C19.3776 11.8394 19.3583 11.8616 19.3438 11.887C17.7435 14.673 15.343 18.7148 12.9834 21.6381C12.9464 21.684 12.9291 21.7427 12.9354 21.8012C12.9416 21.8598 12.9709 21.9135 13.0167 21.9505C13.0561 21.9826 13.1053 22.0001 13.156 22C13.1893 22.0001 13.2221 21.9927 13.252 21.9785C13.282 21.9642 13.3085 21.9434 13.3293 21.9176C15.7086 18.9693 18.1212 14.9075 19.7291 12.1083C19.7437 12.083 19.7531 12.055 19.7568 12.0261C19.7606 11.9972 19.7586 11.9678 19.751 11.9396C19.7433 11.9115 19.7302 11.8851 19.7124 11.862C19.6946 11.8389 19.6724 11.8195 19.6471 11.805ZM21.8053 15.9069C21.7786 15.9407 19.0997 19.3513 16.722 21.1973C16.6979 21.2147 16.6775 21.2369 16.6621 21.2624C16.6467 21.2879 16.6365 21.3163 16.6323 21.3458C16.6281 21.3754 16.6299 21.4054 16.6375 21.4342C16.6452 21.4631 16.6585 21.4901 16.6768 21.5136C16.6951 21.5371 16.718 21.5568 16.744 21.5713C16.7701 21.5858 16.7988 21.5949 16.8284 21.5981C16.8581 21.6013 16.8881 21.5985 16.9166 21.5899C16.9451 21.5813 16.9717 21.567 16.9946 21.5479C19.4152 19.669 22.1283 16.2149 22.1554 16.1803C22.19 16.1337 22.205 16.0755 22.1972 16.018C22.1894 15.9605 22.1595 15.9084 22.1138 15.8727C22.068 15.837 22.0102 15.8206 21.9526 15.827C21.8949 15.8334 21.8421 15.862 21.8053 15.9069Z" fill="white"/>
</svg>
