<svg width="58" height="10" viewBox="0 0 58 10" fill="none" xmlns="http://www.w3.org/2000/svg">
<g clip-path="url(#clip0_230_1053)">
<path d="M5.2588 0.204071L6.79049 3.36734L10.3134 3.87754L7.76056 6.37754L8.37324 9.84693L5.2588 8.21428L2.09331 9.84693L2.70598 6.37754L0.204224 3.87754L3.67605 3.36734L5.2588 0.204071Z" fill="#FFDE00" stroke="#96744A" stroke-width="0.3298" stroke-miterlimit="10"/>
<path d="M17.1039 0.204071L18.6866 3.36734L22.1585 3.87754L19.6567 6.37754L20.2183 9.84693L17.1039 8.21428L13.9895 9.84693L14.6021 6.37754L12.0493 3.87754L15.5722 3.36734L17.1039 0.204071Z" fill="#FFDE00" stroke="#96744A" stroke-width="0.3298" stroke-miterlimit="10"/>
<path d="M52.7412 0.204071L54.324 3.36734L57.7958 3.87754L55.294 6.37754L55.8557 9.84693L52.7412 8.21428L49.6268 9.84693L50.2395 6.37754L47.6866 3.87754L51.2095 3.36734L52.7412 0.204071Z" fill="#FFDE00" stroke="#96744A" stroke-width="0.3298" stroke-miterlimit="10"/>
<path d="M29 0.204071L30.5317 3.36734L34.0546 3.87754L31.5018 6.37754L32.1144 9.84693L29 8.21428L25.8856 9.84693L26.4472 6.37754L23.9454 3.87754L27.4173 3.36734L29 0.204071Z" fill="#FFDE00" stroke="#96744A" stroke-width="0.3298" stroke-miterlimit="10"/>
<path d="M40.8962 0.204071L42.4279 3.36734L45.9507 3.87754L43.3979 6.37754L44.0106 9.84693L40.8962 8.21428L37.7307 9.84693L38.3433 6.37754L35.7905 3.87754L39.3134 3.36734L40.8962 0.204071Z" fill="#FFDE00" stroke="#96744A" stroke-width="0.3298" stroke-miterlimit="10"/>
</g>
<defs>
<clipPath id="clip0_230_1053">
<rect width="58" height="10" rx="5" fill="white"/>
</clipPath>
</defs>
</svg>
