<svg width="204" height="52" viewBox="0 0 204 52" fill="none" xmlns="http://www.w3.org/2000/svg">
<mask id="mask0_8_127" style="mask-type:luminance" maskUnits="userSpaceOnUse" x="3" y="8" width="198" height="36">
<path d="M201 8H3V43.6757H201V8Z" fill="white"/>
</mask>
<g mask="url(#mask0_8_127)">
<path d="M60.3723 27.3838C59.1796 26.3135 57.629 25.8378 56.0784 25.8378C54.7663 25.8378 53.6928 26.1946 52.6193 26.5513V18.8216H49.5181V38.8H52.6193C53.335 38.9189 54.1699 38.9189 55.2434 38.9189C56.4362 38.9189 58.4639 38.8 60.2531 37.6108C61.9229 36.4216 62.8772 34.7567 62.8772 32.4973C62.6386 30 61.6844 28.3351 60.3723 27.3838ZM55.1241 37.6108C53.8121 37.6108 53.0964 37.4919 52.7386 37.254C52.7386 37.254 52.7386 37.254 52.6193 37.254V27.5027C53.335 27.1459 54.1699 27.027 55.2434 27.027C58.3446 27.027 59.8953 29.7622 59.8953 32.2595C59.8953 36.6595 57.2712 37.6108 55.1241 37.6108Z" fill="white"/>
<path d="M12.1843 34.281V18.8216H9.08307V38.9189H9.91801L23.277 23.1027V38.5621H26.4976V18.4649H25.6626L12.1843 34.281Z" fill="white"/>
<path d="M38.4254 18.4649H37.829L28.8832 38.5621H30.5531L37.4712 23.1027L43.7929 38.5621H47.3712L38.4254 18.4649Z" fill="white"/>
<path d="M182.869 16.4432C185.732 16.4432 188.476 15.373 190.384 13.5892L188.356 11.3297C186.806 13.7081 184.54 15.1351 181.796 15.1351C181.081 15.1351 180.246 15.0162 179.53 14.7784L179.172 15.9676C180.603 16.2054 181.796 16.4432 182.869 16.4432Z" fill="white"/>
<path d="M104.147 18.3459C98.1827 18.3459 93.1735 22.9838 93.1735 28.6919C93.1735 34.9946 97.5868 39.0378 104.624 39.0378C108.203 39.0378 111.422 37.7297 113.809 35.2324L114.166 32.854H113.45C111.542 35.946 107.964 37.8486 104.385 37.8486C99.6146 37.8486 96.1557 34.0432 96.1557 28.8108H114.643C115.001 22.8648 110.111 18.3459 104.147 18.3459ZM96.6324 27.3838C97.1092 22.627 99.853 19.5351 104.147 19.5351C108.083 19.5351 111.662 22.9838 112.138 27.3838H96.6324Z" fill="white"/>
<path d="M184.063 18.3459C181.438 18.3459 179.291 18.8216 177.383 19.8919L178.456 21.081C180.127 20.0108 182.274 19.4162 184.063 19.4162C188.118 19.4162 191.219 22.627 191.816 27.2649H178.695V28.5729H191.816C191.816 33.6865 188.595 37.4919 184.063 37.4919C182.154 37.4919 179.291 36.6595 177.264 34.7567H176.548L177.264 36.7783C179.291 38.0865 181.558 38.8 184.063 38.8C187.283 38.8 190.027 37.7297 192.054 35.946C193.963 34.0432 195.156 31.3081 195.156 28.4541C194.797 22.746 190.265 18.3459 184.063 18.3459Z" fill="white"/>
<path d="M160.922 20.1297H166.768V38.5621H169.869V20.1297H175.713V18.8216H160.922V20.1297Z" fill="white"/>
<path d="M91.0265 29.4054V24.2919C91.0265 22.746 90.6689 20.7243 90.1914 19.5351C88.6411 15.9676 85.1822 13.9459 80.4109 13.9459C77.5482 13.9459 75.2819 14.7784 73.2543 16.6811L72.8964 18.7027H73.7313C75.9976 16.0865 77.7868 15.1351 80.7687 15.1351C85.4206 15.1351 87.9252 17.9892 88.2835 23.4595C86.3749 21.4378 83.9891 20.2487 81.2458 20.2487C75.4012 20.2487 70.988 24.2919 70.988 29.6432C70.988 34.7567 75.4012 39.0378 80.888 39.0378C83.1543 39.0378 86.0165 38.6811 88.7603 35.5892C89.8338 34.5189 91.0265 32.4973 91.0265 29.4054ZM88.2835 29.5243C88.2835 31.9027 87.4484 34.281 85.8973 35.827C84.7046 37.1351 83.035 37.8486 81.1265 37.8486C77.0711 37.8486 74.0892 34.4 73.9699 29.5243C73.9699 26.9081 74.6856 24.7676 76.2362 23.3405C77.429 22.0324 79.3374 21.3189 81.2458 21.3189C84.7046 21.3189 88.0443 23.9351 88.2835 29.5243Z" fill="white"/>
<path d="M150.665 18.4649C144.701 18.4649 139.691 23.1027 139.691 28.8108C139.691 34.5189 144.701 39.1568 150.665 39.1568C156.629 39.1568 161.638 34.5189 161.638 28.8108C161.638 23.1027 156.748 18.4649 150.665 18.4649ZM156.868 35.2324C155.675 36.7783 154.005 37.6108 151.858 37.8486C151.5 37.8486 151.381 37.8486 151.022 37.8486C146.729 37.8486 143.628 34.4 143.15 29.5243C142.793 26.7891 143.509 24.2918 145.059 22.3892C146.252 20.8432 147.922 19.773 150.069 19.654C150.188 19.654 150.546 19.654 150.784 19.654C154.84 19.654 158.299 23.2216 158.776 27.9784C158.895 30.7135 158.179 33.3297 156.868 35.2324Z" fill="white"/>
<path d="M135.875 27.3838C134.682 26.3135 133.131 25.8378 131.581 25.8378C130.269 25.8378 129.195 26.1946 128.122 26.5513V20.2487C136.113 20.2487 136.829 20.2487 137.068 20.2487V18.8216H125.14V38.8H128.241C128.957 38.9189 129.791 38.9189 130.865 38.9189C132.058 38.9189 134.085 38.8 135.875 37.6108C137.544 36.4216 138.499 34.7567 138.499 32.4973C138.022 30 137.187 28.3351 135.875 27.3838ZM135.278 32.2595C135.278 34.8757 134.085 37.7297 130.626 37.7297C129.434 37.7297 128.599 37.6108 128.003 37.373H127.884V27.6216C128.599 27.2649 129.434 27.1459 130.507 27.1459C134.085 26.7892 135.278 30 135.278 32.2595Z" fill="white"/>
</g>
</svg>
