<svg width="32" height="32" viewBox="0 0 32 32" fill="none" xmlns="http://www.w3.org/2000/svg">
<g clip-path="url(#clip0_10_16)">
<path d="M24.417 0.375H7.58317C3.60876 0.375 0.375 3.60875 0.375 7.58369V24.4171C0.375 28.3913 3.60876 31.625 7.58311 31.625H24.4169C28.3912 31.625 31.625 28.3913 31.625 24.4171V7.58369C31.6251 3.60875 28.3913 0.375 24.417 0.375ZM7.58317 2.90768H24.417C26.9949 2.90768 29.0923 5.00504 29.0923 7.58369V15.9305H27.3758V12.8971C27.3758 12.1254 26.7475 11.4979 25.9759 11.4979L18.2204 13.1158C17.9813 12.8757 17.6506 12.7268 17.2858 12.7268H14.7135C14.3497 12.7268 14.0197 12.8751 13.7807 13.1143L6.1599 11.512L6.0235 11.4979C5.25183 11.4979 4.62428 12.1254 4.62428 12.8971V15.9305H2.90774V7.58369C2.90774 5.00511 5.00516 2.90768 7.58317 2.90768ZM14.8011 17.9538V14.0495L17.1989 14.0463V17.9506L14.8011 17.9538ZM20.2984 15.3386H18.6059V14.3853L26.0084 12.8285C26.0338 12.8413 26.0529 12.8681 26.0529 12.8971V19.103C26.0529 19.132 26.0338 19.1589 26.0084 19.1716L18.6059 17.6149V16.6616H20.2984C20.6638 16.6616 20.9599 16.3655 20.9599 16.0002C20.9599 15.6348 20.6638 15.3386 20.2984 15.3386ZM13.3942 15.3386H11.7016C11.3363 15.3386 11.0402 15.6347 11.0402 16C11.0402 16.3654 11.3363 16.6615 11.7016 16.6615H13.3941V17.6147L5.99097 19.1715C5.96554 19.1587 5.94714 19.1319 5.94714 19.1029V12.897C5.94714 12.868 5.96554 12.8411 5.99097 12.8284L13.3941 14.3852V15.3386H13.3942Z" fill="#AC7C4C"/>
</g>
<defs>
<clipPath id="clip0_10_16">
<rect width="32" height="32" fill="white"/>
</clipPath>
</defs>
</svg>
