<svg width="300" height="64" viewBox="0 0 300 64" fill="none" xmlns="http://www.w3.org/2000/svg">
<g clip-path="url(#clip0_3_2)">
<mask id="mask0_3_2" style="mask-type:luminance" maskUnits="userSpaceOnUse" x="0" y="0" width="300" height="64">
<path d="M300 0H0V64H300V0Z" fill="white"/>
</mask>
<g mask="url(#mask0_3_2)">
<path d="M112.301 26.0811C112.326 24.4689 111.906 22.8807 111.087 21.4889C110.23 20.0906 108.981 18.9706 107.494 18.2659C105.686 17.4259 103.705 17.0191 101.71 17.0784C98.5799 17.0548 95.5104 17.9368 92.8765 19.6169C90.0484 21.4923 87.8311 24.1447 86.4952 27.2503C84.909 30.649 84.118 34.7848 84.122 39.6577C84.0573 41.8949 84.4388 44.1227 85.2446 46.2128C85.8413 47.789 86.8783 49.1634 88.2339 50.175C89.423 51.0229 90.8513 51.4766 92.3152 51.4715C94.9995 51.4715 96.6447 49.8034 97.2507 46.4673L98.8124 37.7857C101.339 37.6666 103.811 37.0162 106.066 35.8774C107.963 34.9222 109.566 33.4785 110.709 31.6971C111.765 30.013 112.317 28.0652 112.301 26.0811ZM99.4591 34.0781L100.655 27.0928C100.709 26.7829 100.734 26.4684 100.728 26.1538C100.75 25.8928 100.715 25.6302 100.624 25.3843C100.534 25.1383 100.39 24.9151 100.203 24.7301C99.7002 24.3858 99.0916 24.2272 98.483 24.2818C97.8339 24.2676 97.1958 24.4493 96.6528 24.8028C96.3752 25.0101 96.1436 25.2721 95.9725 25.5723C95.8014 25.8725 95.6945 26.2045 95.6584 26.5476C95.0788 29.6918 94.6314 32.202 94.3162 34.0781C93.999 34.0538 93.5537 33.9932 92.9741 33.8963C92.7946 33.8679 92.6129 33.8557 92.4311 33.8599C92.2015 33.8475 91.9718 33.8825 91.7565 33.9628C91.5412 34.0431 91.3451 34.1669 91.1805 34.3264C91.0251 34.4964 90.9051 34.6953 90.8276 34.9116C90.7501 35.1279 90.7166 35.3573 90.7291 35.5866C90.7105 36.024 90.8253 36.4569 91.0585 36.8285C91.2386 37.0267 91.4563 37.1876 91.6992 37.302C91.9421 37.4164 92.2054 37.4819 92.4738 37.4949C92.3518 37.4707 92.7667 37.5313 93.7062 37.6767L92.5105 44.4862C92.1932 46.1422 91.7336 46.9701 91.1317 46.9701C90.6985 46.9701 90.241 46.6551 89.7713 46.0129C89.2204 45.1976 88.8273 44.2874 88.6121 43.3291C88.2921 42.0329 88.1403 40.7014 88.1607 39.3669C88.1063 36.1398 88.6161 32.9277 89.6675 29.8736C90.4897 27.3681 91.9678 25.1247 93.9502 23.373C95.7577 21.827 98.0744 20.9947 100.46 21.0345C102.662 21.0345 104.285 21.5313 105.34 22.5309C105.862 23.03 106.273 23.6326 106.545 24.2996C106.817 24.9666 106.945 25.6829 106.92 26.4022C106.896 30.8974 104.419 33.454 99.4591 34.0781Z" fill="white"/>
<path d="M205.769 30.7277C205.201 30.709 204.637 30.8385 204.134 31.1033C203.625 31.455 203.254 31.971 203.085 32.5634C202.373 34.5605 201.544 36.5146 200.602 38.4157C199.839 39.894 198.939 41.5216 197.899 43.2987C197.558 38.8822 197.389 35.2917 197.393 32.5271C197.417 32.2774 197.39 32.0255 197.312 31.7869C197.234 31.5483 197.108 31.328 196.942 31.1397C196.545 30.833 196.046 30.686 195.545 30.7277C194.894 30.6818 194.246 30.8453 193.696 31.1942C193.47 31.4042 193.294 31.6617 193.181 31.9478C193.068 32.234 193.021 32.5416 193.043 32.8481V34.1083C193.043 34.9685 193.062 35.8773 193.098 36.8345C192.139 37.0557 191.164 37.2036 190.182 37.2768C190.04 35.5525 189.348 33.9182 188.205 32.6119C187.652 31.99 186.967 31.4979 186.199 31.171C185.431 30.8441 184.599 30.6907 183.764 30.7217C182.307 30.7078 180.879 31.1277 179.665 31.9273C178.407 32.7599 177.403 33.9185 176.761 35.2775C176.038 36.8037 175.679 38.4745 175.711 40.1605C175.716 40.6292 175.754 41.0969 175.827 41.56C175.385 42.0381 174.91 42.4854 174.406 42.8989C173.768 43.4427 172.959 43.749 172.118 43.7652C171.687 43.7504 171.26 43.677 170.849 43.5471C171.582 42.5475 172.156 41.4421 172.551 40.2696C172.96 39.0756 173.168 37.823 173.167 36.5619C173.24 35.0399 172.786 33.539 171.88 32.3089C171.497 31.796 170.995 31.3811 170.418 31.0988C169.841 30.8164 169.205 30.6747 168.561 30.6853C167.722 30.6837 166.898 30.901 166.17 31.3154C165.282 31.8557 164.505 32.5589 163.882 33.3873C163.858 33.0965 163.846 32.6543 163.846 32.0545C163.879 31.6185 163.741 31.1865 163.461 30.8489C163.143 30.6159 162.751 30.5061 162.357 30.5399C161.584 30.5121 160.822 30.7262 160.179 31.1518C159.905 31.3299 159.684 31.5767 159.537 31.8671C159.39 32.1576 159.323 32.4814 159.343 32.8057C159.392 34.1749 159.416 36.6124 159.416 40.1181C159.24 40.4089 159.075 40.6937 158.904 40.9844C158.336 41.6477 157.731 42.2787 157.092 42.8746C156.657 43.356 156.065 43.6693 155.421 43.7591C155.285 43.7622 155.151 43.7343 155.028 43.6776C154.906 43.6209 154.798 43.5368 154.713 43.432C154.52 43.1853 154.422 42.8778 154.438 42.5657C154.553 40.6252 154.832 38.6979 155.274 36.8042C155.536 35.616 155.717 34.4117 155.817 33.1995C155.817 32.3574 155.225 31.9394 154.042 31.9394C153.506 31.9377 152.97 31.9864 152.443 32.0848C152.379 31.69 152.224 31.315 151.992 30.9882C151.845 30.8672 151.674 30.7774 151.49 30.7242C151.307 30.6711 151.114 30.6558 150.924 30.6793C149.219 30.6909 147.561 31.2403 146.19 32.2484C144.678 33.3216 143.451 34.7437 142.615 36.3923C141.781 37.9807 141.326 39.7386 141.285 41.5297C140.838 41.9881 140.364 42.4191 139.864 42.8201C139.082 43.4401 138.107 43.7719 137.106 43.7591C136.542 43.7942 135.978 43.6708 135.481 43.403C134.984 43.1351 134.572 42.7337 134.294 42.2446C133.702 41.2389 133.403 39.482 133.403 36.986C133.403 36.3135 133.428 35.3805 133.476 34.1749H137.899C140.632 34.1749 141.999 33.3469 141.999 31.691C142.036 31.3571 141.944 31.0217 141.743 30.752C141.627 30.6571 141.494 30.5858 141.35 30.5422C141.207 30.4985 141.056 30.4833 140.907 30.4975H136.844C139.986 27.7349 141.558 24.4937 141.56 20.7739C141.604 19.5967 141.3 18.4323 140.687 17.4237C140.444 17.0102 140.095 16.6687 139.674 16.4343C139.254 16.2 138.778 16.0815 138.296 16.0909C136.917 16.0909 135.63 16.7391 134.434 18.0356C133.093 19.5708 132.055 21.3422 131.372 23.2578C130.484 25.5969 129.852 28.0241 129.487 30.4975H127.418C126.333 30.4975 125.784 31.17 125.784 32.5149C125.744 32.9674 125.879 33.4179 126.162 33.7751C126.582 34.0908 127.109 34.232 127.632 34.1688H129.047C128.992 34.9564 128.968 35.7319 128.956 36.5073C128.881 36.4825 128.803 36.4703 128.724 36.471C128.553 36.4743 128.383 36.4987 128.218 36.5437C126.889 36.9082 125.528 37.1495 124.155 37.2646C124.013 35.5404 123.32 33.9061 122.178 32.5997C121.625 31.9779 120.939 31.4858 120.171 31.1589C119.403 30.832 118.572 30.6785 117.737 30.7096C116.28 30.6957 114.852 31.1156 113.637 31.9152C112.379 32.7478 111.375 33.9064 110.733 35.2654C110.011 36.7916 109.652 38.4624 109.684 40.1484C109.673 41.4392 109.946 42.7169 110.483 43.8924C110.989 45.0138 111.798 45.9742 112.82 46.6671C113.921 47.3842 115.218 47.7479 116.535 47.7092C118.248 47.7104 119.896 47.06 121.141 45.8917C122.54 44.6019 123.493 42.9053 123.862 41.045C125.493 40.9943 127.107 40.7023 128.651 40.1787C128.806 40.1311 128.951 40.055 129.078 39.9545C129.651 45.1223 132.071 47.7072 136.338 47.7092C137.845 47.7358 139.325 47.3092 140.584 46.4854C141.11 46.1299 141.614 45.7414 142.091 45.3222C142.241 45.5941 142.417 45.8517 142.615 46.0916C143.047 46.62 143.596 47.0416 144.219 47.3234C144.843 47.6051 145.524 47.7392 146.208 47.7152C148.12 47.7152 149.704 46.7075 150.961 44.6921C151.248 45.5548 151.77 46.3221 152.468 46.9095C153.08 47.4302 153.858 47.7179 154.664 47.7213C154.941 47.721 155.217 47.6905 155.488 47.6304C155.067 48.6058 154.688 49.557 154.371 50.4718C153.378 53.1093 152.826 55.8904 152.736 58.705C152.661 60.0655 152.99 61.418 153.682 62.5945C154 63.0603 154.435 63.4352 154.945 63.6818C155.455 63.9284 156.02 64.0381 156.586 64C158.739 64 160.372 62.445 161.485 59.3351C162.722 55.5773 163.442 51.6707 163.626 47.7213C165.168 47.6851 166.667 47.2099 167.945 46.3521C168.328 46.7983 168.807 47.1531 169.346 47.3901C169.886 47.6272 170.473 47.7404 171.063 47.7213C172.518 47.7433 173.944 47.3157 175.144 46.4975C175.833 46.0224 176.48 45.4893 177.078 44.9042C177.547 45.6018 178.145 46.2043 178.841 46.6793C179.943 47.3963 181.24 47.7601 182.556 47.7213C184.269 47.7225 185.917 47.0721 187.162 45.9038C188.562 44.614 189.514 42.9175 189.883 41.0571C191.033 41.0126 192.175 40.8563 193.293 40.5907C193.348 41.348 193.409 42.1295 193.476 42.9352C193.623 44.6134 193.983 45.8372 194.562 46.5884C194.839 46.9551 195.201 47.2498 195.618 47.4471C196.034 47.6444 196.493 47.7385 196.954 47.7213C197.857 47.7251 198.74 47.4614 199.492 46.964C200.492 46.2081 201.32 45.25 201.92 44.153C204.036 40.6304 205.892 36.9594 207.471 33.1692C207.637 32.793 207.736 32.3913 207.764 31.9818C207.764 31.1458 207.099 30.7277 205.769 30.7277ZM134.843 24.6573C135.134 23.3689 135.559 22.1141 136.112 20.9133C136.557 20.0106 136.966 19.5623 137.326 19.5623C137.857 19.5623 138.125 20.2711 138.125 21.6887C138.077 23.1365 137.713 24.5565 137.058 25.8508C136.298 27.4384 135.203 28.8453 133.849 29.9765C134.083 28.1869 134.415 26.4112 134.843 24.6573ZM118.847 42.9716C118.601 43.2646 118.293 43.5004 117.945 43.6627C117.597 43.8249 117.218 43.9095 116.834 43.9106C116.466 43.8993 116.107 43.7983 115.788 43.6166C115.469 43.4349 115.199 43.178 115.004 42.8686C114.427 41.9686 114.154 40.9099 114.223 39.8455C114.14 38.4762 114.476 37.114 115.187 35.9379C115.435 35.5208 115.787 35.174 116.209 34.931C116.631 34.6881 117.109 34.557 117.596 34.5505H117.779C117.707 34.93 117.67 35.3153 117.67 35.7016C117.667 36.5999 117.872 37.4868 118.267 38.2946C118.652 39.0957 119.246 39.7798 119.988 40.2756C119.878 41.2648 119.481 42.2011 118.847 42.9716ZM150.095 40.6694C149.935 41.5644 149.576 42.4129 149.045 43.1533C148.882 43.4171 148.66 43.6395 148.395 43.8025C148.13 43.9656 147.831 44.0648 147.52 44.0924C147.284 44.1036 147.048 44.0608 146.832 43.9673C146.615 43.8738 146.423 43.7321 146.27 43.5532C145.93 43.0707 145.77 42.4859 145.818 41.8993C145.812 40.5891 146.071 39.2911 146.581 38.0825C147.025 36.9689 147.727 35.9748 148.63 35.1806C149.403 34.4831 150.4 34.0815 151.443 34.0477L150.095 40.6694ZM158.507 56.2453C158.074 59.0685 157.525 60.4801 156.879 60.4801C156.635 60.4801 156.427 60.2741 156.244 59.8682C156.035 59.3047 155.941 58.7052 155.97 58.1052C156.03 56.2362 156.336 54.3829 156.879 52.5922C157.541 50.245 158.365 47.9456 159.343 45.7099C159.279 49.2353 159 52.7535 158.507 56.2453ZM167.976 40.0394C167.587 41.0845 166.989 42.0407 166.219 42.8504C165.575 43.5511 164.736 44.0465 163.809 44.2741C163.833 43.6743 163.846 42.8201 163.846 41.7175C163.846 39.6758 163.858 38.131 163.882 37.0708C165.114 35.2472 166.17 34.3324 167.036 34.3324C167.26 34.326 167.483 34.3733 167.684 34.4703C167.886 34.5674 168.061 34.7112 168.195 34.8898C168.518 35.3748 168.67 35.9519 168.628 36.5316C168.631 37.7308 168.41 38.9202 167.976 40.0394ZM184.856 42.9716C184.61 43.2646 184.302 43.5004 183.954 43.6627C183.607 43.8249 183.227 43.9095 182.843 43.9106C182.475 43.8993 182.116 43.7983 181.797 43.6166C181.478 43.4349 181.208 43.178 181.013 42.8686C180.436 41.9686 180.163 40.9099 180.232 39.8455C180.152 38.4765 180.488 37.1152 181.196 35.9379C181.444 35.5208 181.796 35.174 182.218 34.931C182.64 34.6881 183.118 34.557 183.606 34.5505H183.789C183.716 34.93 183.679 35.3153 183.679 35.7016C183.676 36.5999 183.881 37.4868 184.277 38.2946C184.662 39.0957 185.256 39.7798 185.997 40.2756C185.887 41.2648 185.491 42.2011 184.856 42.9716Z" fill="white"/>
<path d="M295.9 34.187C298.633 34.187 300 33.359 300 31.7031C300.037 31.3692 299.945 31.0338 299.744 30.7641C299.628 30.6692 299.495 30.5979 299.351 30.5543C299.208 30.5106 299.057 30.4954 298.908 30.5096H294.845C297.987 27.747 299.559 24.5058 299.561 20.786C299.604 19.6087 299.301 18.4444 298.688 17.4358C298.445 17.0223 298.095 16.6807 297.675 16.4464C297.255 16.2121 296.779 16.0935 296.297 16.1029C294.918 16.1029 293.631 16.7512 292.435 18.0477C291.094 19.5829 290.056 21.3543 289.373 23.2699C288.484 25.609 287.852 28.0362 287.487 30.5096H285.419C284.333 30.5096 283.79 31.1821 283.79 32.527C283.79 32.6058 283.797 32.6724 283.803 32.7451C283.687 31.4305 282.912 30.7641 281.472 30.7641C280.537 30.8057 279.63 31.092 278.843 31.594C277.697 32.3228 276.705 33.2651 275.921 34.3687C274.794 35.9165 273.89 37.6131 273.236 39.4093C273.334 38.3551 273.456 37.4645 273.596 36.7436C273.737 36.0227 273.932 35.1806 274.176 34.2233C274.439 33.378 274.621 32.5098 274.719 31.6304C274.735 31.5008 274.716 31.3694 274.664 31.2492C274.613 31.1291 274.531 31.0245 274.426 30.9458C274.108 30.799 273.757 30.7364 273.407 30.7641C272.679 30.7233 271.955 30.8915 271.321 31.2487C270.794 31.6181 270.415 32.1612 270.253 32.7815C269.347 35.6616 268.894 38.6636 268.911 41.6811C268.911 41.8205 268.911 41.9537 268.917 42.0931C268.471 42.426 268.002 42.7277 267.514 42.9958C266.39 43.6741 265.113 44.0634 263.799 44.1287C262.109 44.1287 260.956 43.5774 260.352 42.4748C263.207 41.7781 265.232 40.835 266.428 39.6455C267.005 39.093 267.462 38.429 267.77 37.6944C268.079 36.9598 268.232 36.1703 268.222 35.3744C268.254 34.7566 268.158 34.1387 267.94 33.5592C267.722 32.9797 267.386 32.451 266.953 32.006C266.504 31.5841 265.973 31.2566 265.393 31.0432C264.814 30.8298 264.197 30.7349 263.579 30.7641C262.073 30.7428 260.597 31.1828 259.351 32.0242C258.091 32.8823 257.083 34.0572 256.429 35.4289C256.16 35.9853 255.943 36.5654 255.782 37.1616C255.221 37.2404 254.721 37.2949 254.288 37.3192C254.817 36.1509 255.113 34.8917 255.16 33.6115C255.212 32.8415 254.98 32.0791 254.507 31.4668C254.297 31.226 254.035 31.0347 253.74 30.9069C253.446 30.779 253.126 30.7178 252.805 30.7277C252.03 30.7207 251.275 30.9748 250.664 31.4486C250.023 31.9443 249.512 32.5865 249.175 33.3207C248.821 34.063 248.635 34.8739 248.632 35.6955C248.61 36.5547 248.797 37.4066 249.175 38.1794C248.449 39.4517 247.361 41.1561 245.911 43.2926C245.57 38.8761 245.401 35.2856 245.405 32.521C245.429 32.2713 245.402 32.0194 245.324 31.7808C245.247 31.5422 245.12 31.3219 244.954 31.1336C244.557 30.8269 244.058 30.6799 243.557 30.7216C242.906 30.6757 242.258 30.8393 241.708 31.1881C241.482 31.3981 241.306 31.6556 241.193 31.9417C241.08 32.2279 241.033 32.5355 241.055 32.8421V34.1022C241.055 36.3195 241.167 38.862 241.391 41.7296C240.179 42.1164 238.947 42.438 237.7 42.6929C235.609 43.1445 233.477 43.38 231.337 43.3956C228.293 43.3956 226.068 43.018 224.663 42.2627C224.021 41.9644 223.48 41.4872 223.106 40.8891C222.733 40.2911 222.542 39.598 222.558 38.8943C222.563 37.9846 222.877 37.1031 223.449 36.3922C224.205 35.4973 225.198 34.83 226.316 34.4657C227.919 33.912 229.604 33.6313 231.3 33.6357C232.752 33.6115 233.478 32.8077 233.478 31.2245C233.497 31.0321 233.478 30.8378 233.422 30.6527C233.365 30.4677 233.272 30.2955 233.149 30.1461C232.831 29.8951 232.432 29.768 232.026 29.7887C229.922 29.716 228.405 29.3141 227.475 28.5831C227.035 28.2617 226.679 27.8406 226.436 27.3548C226.193 26.869 226.07 26.3326 226.078 25.7902C226.062 25.0996 226.224 24.4164 226.547 23.8048C226.87 23.1933 227.345 22.6735 227.927 22.2945C229.396 21.3634 231.121 20.9103 232.862 20.9981C234.387 20.9981 235.475 21.2687 236.126 21.8099C236.442 22.0624 236.695 22.384 236.866 22.7498C237.036 23.1155 237.119 23.5153 237.108 23.9182C237.081 24.4626 237.02 25.0049 236.925 25.5418C236.809 25.9769 236.748 26.4246 236.742 26.8746C236.725 27.1292 236.768 27.3843 236.869 27.6191C236.97 27.8538 237.125 28.0617 237.322 28.2256C237.788 28.5505 238.352 28.7085 238.92 28.6739C239.379 28.6828 239.831 28.5645 240.225 28.3323C240.619 28.1 240.941 27.763 241.153 27.3593C241.716 26.3013 241.985 25.1137 241.934 23.9182C241.962 22.9723 241.774 22.0324 241.384 21.169C240.994 20.3055 240.412 19.5408 239.683 18.9322C238.182 17.6478 235.933 17.0056 232.935 17.0056C230.842 16.9809 228.762 17.3467 226.804 18.084C225.079 18.7084 223.548 19.7693 222.363 21.1616C221.28 22.4485 220.694 24.0766 220.71 25.7538C220.7 26.9996 221.101 28.2143 221.85 29.2131C222.668 30.2807 223.824 31.0428 225.133 31.376C222.522 32.0242 220.545 33.0743 219.203 34.5263C217.868 35.9594 217.146 37.8514 217.19 39.803C217.181 41.2962 217.716 42.7422 218.696 43.8742C219.931 45.2227 221.52 46.2025 223.284 46.7035C225.763 47.4467 228.346 47.7923 230.934 47.7273C233.184 47.722 235.43 47.5233 237.645 47.1336C239.194 46.8839 240.716 46.4884 242.19 45.9522C242.292 46.1712 242.415 46.3801 242.556 46.5763C242.818 46.9459 243.17 47.2448 243.578 47.4458C243.986 47.6468 244.438 47.7435 244.893 47.7273C245.751 47.7378 246.59 47.4721 247.284 46.97C248.26 46.1674 249.103 45.2191 249.785 44.159C250.633 42.9594 251.406 41.7942 252.104 40.6633C253.081 40.9569 254.097 41.102 255.117 41.0935C255.221 41.0935 255.319 41.0874 255.422 41.0814C255.524 42.8062 256.252 44.4359 257.472 45.6675C258.875 47.0367 260.846 47.7213 263.384 47.7213C265.221 47.7289 267.028 47.2567 268.624 46.3521C268.874 46.2127 269.1 46.0673 269.338 45.9219C269.375 46.0492 269.417 46.1703 269.46 46.2794C269.576 46.6996 269.83 47.0694 270.181 47.3305C270.532 47.5916 270.961 47.7291 271.4 47.7213C271.702 47.7465 272.007 47.7065 272.292 47.604C272.577 47.5015 272.837 47.339 273.053 47.1276C273.528 46.4412 273.845 45.6593 273.981 44.8375C274.331 43.4042 274.811 42.0052 275.414 40.6573C275.892 39.5435 276.475 38.4767 277.153 37.4706C277.72 36.6649 278.16 36.265 278.477 36.265C278.745 36.265 278.873 36.4589 278.873 36.8405C278.805 37.8958 278.648 38.9435 278.404 39.9727C278.135 41.1583 277.966 42.364 277.897 43.5774C277.817 44.6842 278.154 45.781 278.843 46.655C279.202 47.0242 279.638 47.3106 280.121 47.4938C280.604 47.677 281.121 47.7526 281.637 47.7152C283.092 47.7372 284.518 47.3096 285.718 46.4914C286.64 45.8542 287.489 45.1188 288.25 44.2983C288.342 44.4861 288.427 44.6739 288.531 44.8496C289.004 45.7578 289.732 46.5111 290.625 47.0194C291.519 47.5276 292.541 47.7692 293.57 47.7152C295.137 47.7268 296.656 47.1761 297.846 46.1643C298.205 45.8778 298.486 45.5072 298.664 45.0859C298.845 44.6645 298.938 44.2112 298.938 43.7531C298.95 43.3463 298.856 42.9434 298.664 42.5838C298.605 42.4443 298.507 42.3245 298.382 42.2386C298.256 42.1527 298.108 42.1043 297.956 42.0992C297.654 42.1153 297.369 42.2427 297.157 42.4566C296.722 42.839 296.233 43.1554 295.705 43.3956C295.276 43.6102 294.806 43.732 294.326 43.7531C294.006 43.7712 293.685 43.7247 293.383 43.6164C293.081 43.5082 292.804 43.3403 292.569 43.123C292.067 42.5298 291.751 41.803 291.66 41.0329C291.45 39.6924 291.358 38.3363 291.386 36.9799C291.386 36.3074 291.41 35.3744 291.459 34.1688H295.9V34.187ZM292.832 24.6573C293.123 23.3689 293.548 22.1141 294.101 20.9132C294.546 20.0166 294.955 19.5622 295.315 19.5622C295.845 19.5622 296.114 20.2711 296.114 21.6887C296.066 23.1364 295.701 24.5565 295.046 25.8508C294.286 27.4384 293.192 28.8453 291.837 29.9765C292.072 28.1869 292.404 26.4112 292.832 24.6573ZM262.969 34.29C263.161 34.281 263.352 34.3131 263.53 34.3842C263.708 34.4553 263.868 34.5637 264 34.702C264.263 35.0055 264.399 35.3983 264.378 35.7985C264.37 36.2565 264.254 36.7063 264.04 37.1122C263.826 37.5181 263.52 37.869 263.146 38.137C262.221 38.835 261.156 39.3268 260.022 39.5789C260.318 39.0635 260.46 38.4751 260.431 37.8826C260.444 37.566 260.359 37.2531 260.187 36.9859C260.318 36.5839 260.489 36.1962 260.7 35.8288C261.316 34.811 262.072 34.29 262.969 34.29ZM285.108 42.8807C284.657 43.3665 284.048 43.6796 283.388 43.7652C282.686 43.7652 282.339 43.2866 282.339 42.3233C282.452 40.9254 282.683 39.5393 283.028 38.1794C283.444 36.5138 283.712 34.8149 283.827 33.1026C283.826 33.0478 283.822 32.9932 283.815 32.939C283.839 33.2519 283.963 33.5489 284.169 33.7871C284.589 34.1029 285.116 34.2441 285.639 34.1809H287.054C286.981 35.2593 286.945 36.3316 286.945 37.3858C286.941 38.497 287.022 39.6069 287.189 40.7057C286.54 41.4717 285.845 42.198 285.108 42.8807Z" fill="white"/>
<path d="M46.7372 0H14.0132C10.2982 0.00480895 6.73667 1.47248 4.10973 4.08119C1.48279 6.68989 0.00484257 10.2267 0 13.9159V46.4127C0.00484257 50.102 1.48279 53.6388 4.10973 56.2475C6.73667 58.8562 10.2982 60.3238 14.0132 60.3287H46.7372C50.4522 60.3238 54.0137 58.8562 56.6407 56.2475C59.2676 53.6388 60.7455 50.102 60.7504 46.4127V13.9159C60.7455 10.2267 59.2676 6.68989 56.6407 4.08119C54.0137 1.47248 50.4522 0.00480895 46.7372 0ZM25.3055 28.8921H22.0173C21.6759 28.8921 21.3485 29.0268 21.1071 29.2665C20.8657 29.5062 20.73 29.8314 20.73 30.1704C20.73 30.5094 20.8657 30.8346 21.1071 31.0743C21.3485 31.314 21.6759 31.4487 22.0173 31.4487H25.3055V33.2904L10.9141 36.2893C10.8892 36.2766 10.8682 36.2576 10.8532 36.2341C10.8382 36.2107 10.8297 36.1837 10.8287 36.156V24.1727C10.8297 24.1449 10.8382 24.1179 10.8532 24.0945C10.8682 24.0711 10.8892 24.0521 10.9141 24.0394L25.3055 27.0443V28.8921ZM32.7056 33.9326L28.0447 33.9387V26.4021L32.7056 26.3961V33.9326ZM49.9156 36.1621C49.9146 36.1898 49.9061 36.2168 49.8911 36.2402C49.8761 36.2636 49.8551 36.2827 49.8302 36.2953L35.4387 33.2904V31.4487H38.727C39.0684 31.4487 39.3958 31.314 39.6372 31.0743C39.8786 30.8346 40.0142 30.5094 40.0142 30.1704C40.0142 29.8314 39.8786 29.5062 39.6372 29.2665C39.3958 29.0268 39.0684 28.8921 38.727 28.8921H35.4387V27.0504L49.8302 24.0454C49.8551 24.0581 49.8761 24.0771 49.8911 24.1006C49.9061 24.124 49.9146 24.151 49.9156 24.1787V36.1621ZM55.8271 30.0371H52.4901V24.1787C52.4894 23.4623 52.2026 22.7754 51.6924 22.2688C51.1823 21.7622 50.4906 21.4774 49.7692 21.4767L34.6945 24.6028C34.2127 24.123 33.5588 23.8528 32.8765 23.8516H27.8739C27.5374 23.8511 27.204 23.9167 26.8931 24.0446C26.5821 24.1725 26.2997 24.3601 26.062 24.5967L11.2496 21.5009L10.9873 21.4706C10.2659 21.4713 9.57417 21.7562 9.06405 22.2628C8.55392 22.7693 8.26704 23.4562 8.2664 24.1727V30.0311H4.92934V13.9159C4.93127 11.5225 5.88959 9.22754 7.59387 7.53509C9.29815 5.84264 11.6091 4.89098 14.0193 4.88905H46.7433C49.1535 4.89098 51.4644 5.84264 53.1687 7.53509C54.873 9.22754 55.8313 11.5225 55.8333 13.9159V30.0371H55.8271Z" fill="white"/>
</g>
</g>
<defs>
<clipPath id="clip0_3_2">
<rect width="300" height="64" fill="white"/>
</clipPath>
</defs>
</svg>
