<svg width="50" height="52" viewBox="0 0 50 52" fill="none" xmlns="http://www.w3.org/2000/svg">
<path d="M8.07916 5H41.9384V38.9296H8.07916V5Z" fill="#F63D37"/>
<path d="M38.2095 11.4816L34.419 17.6027C34.0057 18.2887 34.0673 18.8339 34.2607 19.3528L40.0124 34.0662H16.1878C14.0507 34.0662 12.3973 32.3513 12.3973 30.3109L12.3797 10.7165C12.4325 8.19245 16.1262 8.14848 16.1878 10.7077V29.0709C16.1878 29.6513 16.6979 30.3109 17.3663 30.2933H34.8148L30.3032 19.6606C30.18 19.2561 30.1009 18.8515 30.1009 18.4382C30.1009 17.9897 30.3032 17.2685 30.5934 16.6881L34.7444 9.86343C35.0435 9.24781 35.6679 8.83446 36.4066 8.79928C37.4356 8.7641 38.3239 9.46767 38.3678 10.567C38.3678 10.7869 38.3151 11.2618 38.2095 11.4816Z" fill="white"/>
<path d="M25.0704 23.8469V10.7077C25.0704 8.14845 28.8081 8.13087 28.8521 10.7077V23.9964C28.8521 27.0305 26.583 29.0357 23.8039 29.0357C21.0161 29.0357 18.747 26.9865 18.747 23.9964V10.7077C18.747 8.14845 22.5287 8.14845 22.5287 10.7077V23.8469C22.5287 25.6146 25.0704 25.7201 25.0704 23.8469Z" fill="white"/>
<path d="M13.1624 42.1221V47.5044H11.6586V43.4061H10.5856V45.5344C10.5856 46.3083 10.5065 47.5659 8.62442 47.5659C8.40455 47.5659 8.23745 47.5659 8 47.5044V46.2116C8.11433 46.238 8.21987 46.2643 8.3254 46.2643C8.99379 46.2643 9.07294 45.851 9.07294 45.0859V42.1221H13.1624Z" fill="white"/>
<path d="M15.493 42.1221L16.5484 44.3823L17.4102 42.1221H19.046L16.6275 47.5044H15.0093L15.7393 46.0181L13.7165 42.1221H15.493Z" fill="white"/>
<path d="M19.5473 42.1221H21.0512V44.3823L22.6782 42.1221H24.4459L22.3968 44.7253L24.4987 47.5044H22.6167L21.0512 45.1826V47.5044H19.5473V42.1221Z" fill="white"/>
<path d="M32.7041 42.1221V45.3497L34.7884 42.1221H36.2571V47.5044H34.806V44.268L32.7217 47.5044H31.2442V42.1221H32.7041ZM35.3688 40.9612C35.0786 41.5944 34.3926 41.8231 33.7506 41.8231C33.1174 41.8231 32.4314 41.5944 32.1412 40.9612L33.0031 40.6446C33.135 41.014 33.478 41.0931 33.7506 41.0931C34.0321 41.0931 34.3663 41.014 34.507 40.6446L35.3688 40.9612Z" fill="white"/>
<path d="M42 42.1221V47.5044H40.4873V43.4061H39.4144V45.5344C39.4144 46.3083 39.3352 47.5659 37.462 47.5659C37.2421 47.5659 37.0662 47.5659 36.8288 47.5044V46.2116C36.9431 46.238 37.0574 46.2643 37.163 46.2643C37.8226 46.2643 37.9105 45.851 37.9105 45.0859V42.1221H42Z" fill="white"/>
<path fill-rule="evenodd" clip-rule="evenodd" d="M24.5602 44.8132C24.5602 43.3357 25.5101 41.8934 27.5328 41.8934C29.5468 41.8934 30.4966 43.3357 30.4966 44.8132C30.4966 46.2907 29.5468 47.733 27.5328 47.733C25.5101 47.733 24.5602 46.2907 24.5602 44.8132ZM28.9048 44.8132C28.9048 43.7491 28.2452 43.2126 27.5328 43.2126C26.8117 43.2126 26.1521 43.7491 26.1521 44.8132C26.1521 45.8774 26.8117 46.4051 27.5328 46.4051C28.2452 46.4051 28.9048 45.8774 28.9048 44.8132Z" fill="white"/>
</svg>
