<svg width="38" height="38" viewBox="0 0 38 38" fill="none" xmlns="http://www.w3.org/2000/svg">
<path fill-rule="evenodd" clip-rule="evenodd" d="M19.4082 37.8915C15.679 37.8915 13.946 37.3448 10.9336 35.1576C9.02815 37.6182 2.99428 39.541 2.73113 36.2512C2.73113 33.7817 2.18671 31.6948 1.56971 29.4165C0.83477 26.6097 0 23.484 0 18.9549C0 8.13784 8.83762 0 19.3084 0C29.7884 0 37.9999 8.53882 37.9999 19.0551C38.035 29.4089 29.7171 37.8363 19.4082 37.8915ZM19.5625 9.34985C14.4632 9.0856 10.489 12.6305 9.60886 18.1894C8.88297 22.7915 10.1714 28.3959 11.2693 28.6875C11.7956 28.8151 13.1203 27.7398 13.946 26.9105C15.3113 27.8578 16.9012 28.4267 18.5554 28.5599C23.8391 28.8152 28.3538 24.7752 28.7086 19.4744C28.9151 14.1623 24.847 9.66299 19.5625 9.35899V9.34985Z" fill="#AC7C4C"/>
</svg>
