<svg width="40" height="40" viewBox="0 0 40 40" fill="none" xmlns="http://www.w3.org/2000/svg">
<path d="M20 40C31.0457 40 40 31.0457 40 20C40 8.9543 31.0457 0 20 0C8.9543 0 0 8.9543 0 20C0 31.0457 8.9543 40 20 40Z" fill="#AC7C4C"/>
<path fill-rule="evenodd" clip-rule="evenodd" d="M20.7256 30.9401C18.6647 30.9401 17.707 30.6379 16.0423 29.4292C14.9892 30.789 11.6547 31.8516 11.5093 30.0336C11.5093 28.6688 11.2084 27.5155 10.8675 26.2565C10.4613 24.7054 10 22.978 10 20.4751C10 14.4972 14.884 10 20.6705 10C26.462 10 30.9999 14.7188 30.9999 20.5305C31.0194 26.2523 26.4226 30.9095 20.7256 30.9401ZM20.8109 15.167C17.9928 15.021 15.7965 16.98 15.3102 20.052C14.909 22.5953 15.621 25.6925 16.2278 25.8536C16.5186 25.9241 17.2507 25.3299 17.707 24.8716C18.4615 25.3951 19.3402 25.7095 20.2543 25.7831C23.1742 25.9242 25.6692 23.6916 25.8653 20.7622C25.9794 17.8265 23.7312 15.3401 20.8109 15.1721V15.167Z" fill="white"/>
</svg>
