<svg width="115" height="115" viewBox="0 0 115 115" fill="none" xmlns="http://www.w3.org/2000/svg">
<circle cx="57.5" cy="57.5" r="57.5" fill="#D9D9D9" fill-opacity="0.3"/>
<path d="M77.7323 54.4387L52.5794 38.0383C51.8228 37.5466 50.9539 37.2772 50.064 37.2585C49.174 37.2398 48.2955 37.4724 47.5207 37.9319C46.7458 38.3915 46.1031 39.061 45.6597 39.8706C45.2163 40.6801 44.9886 41.5997 45.0004 42.5332V75.1951C45.0004 76.5759 45.5235 77.9002 46.4545 78.8766C47.3855 79.853 48.6482 80.4015 49.9648 80.4015C50.8823 80.4224 51.7873 80.1761 52.5794 79.69L77.7323 63.3591C78.4507 62.8921 79.0436 62.2406 79.4547 61.4661C79.8658 60.6917 80.0816 59.82 80.0816 58.9336C80.0816 58.0472 79.8658 57.1755 79.4547 56.401C79.0436 55.6266 78.4507 54.975 77.7323 54.5081V54.4387Z" fill="white" fill-opacity="0.7"/>
</svg>
