<svg width="204" height="52" viewBox="0 0 204 52" fill="none" xmlns="http://www.w3.org/2000/svg">
<path d="M193.992 5H151.479V46.1826H193.992V5Z" fill="url(#paint0_linear_8_111)"/>
<path d="M177.647 16.9912V8.67216L161.88 16.4182V24.7373L177.647 16.9912Z" fill="white"/>
<path d="M177.647 18.7306L169.781 22.5972V41.5201H177.647V18.7306Z" fill="white"/>
<path d="M148.133 5H11V46.1301H148.133V5Z" fill="url(#paint1_linear_8_111)"/>
<path d="M24.2717 36.5479V14.7508H32.1625C34.3235 14.7508 36.0751 15.4332 37.4174 16.798C38.7597 18.1629 39.4308 19.8019 39.4309 21.7152C39.4308 23.6285 38.7652 25.2514 37.4339 26.5841C36.1026 27.9168 34.3455 28.5832 32.1625 28.5832H29.085V36.5479H24.2717ZM29.085 24.65H31.9987C32.7627 24.65 33.3794 24.3812 33.8487 23.8436C34.318 23.306 34.5527 22.5966 34.5527 21.7152C34.5527 20.8338 34.318 20.1245 33.8487 19.5872C33.3794 19.05 32.7627 18.7813 31.9987 18.7813H29.085V24.65Z" fill="white"/>
<path d="M41.6961 27.9711V23.36C41.6961 20.4794 42.5202 18.2546 44.1682 16.6854C45.8162 15.1162 47.9063 14.3316 50.4383 14.3316C52.9923 14.3316 55.0933 15.1162 56.7414 16.6854C58.3894 18.2546 59.2134 20.4794 59.2134 23.36V27.9711C59.2134 30.8727 58.3894 33.0974 56.7414 34.6452C55.0933 36.1931 52.9923 36.967 50.4383 36.967C47.9063 36.967 45.8162 36.1879 44.1682 34.6295C42.5202 33.0711 41.6961 30.8517 41.6961 27.9711ZM50.4383 32.9365C53.0795 32.9365 54.4002 31.163 54.4002 27.6159V23.6827C54.4002 20.1357 53.0795 18.3621 50.4383 18.3621C47.819 18.3621 46.5094 20.1357 46.5094 23.6827V27.6159C46.5094 31.163 47.819 32.9365 50.4383 32.9365Z" fill="white"/>
<path d="M76.8676 32.0656L77.7839 35.9673C75.6889 36.6338 73.5609 36.967 71.3999 36.967C68.6927 36.967 66.5097 36.1985 64.851 34.6615C63.1923 33.1244 62.363 30.9048 62.363 28.0026V23.295C62.363 20.3935 63.1923 18.1742 64.851 16.6371C66.5097 15.1001 68.6927 14.3316 71.3999 14.3316C73.5609 14.3316 75.6889 14.6649 77.7839 15.3313L76.8676 19.2005C75.0337 18.6416 73.2218 18.3621 71.4319 18.3621C68.5947 18.3621 67.1762 20.1357 67.1762 23.6827V27.5834C67.1762 29.4754 67.5417 30.8405 68.2728 31.6789C69.0039 32.5173 70.0569 32.9365 71.4319 32.9365C73.353 32.9365 75.1649 32.6462 76.8676 32.0656Z" fill="white"/>
<path d="M95.1683 32.0656L96.0846 35.9673C93.9896 36.6338 91.8616 36.967 89.7006 36.967C86.9934 36.967 84.8104 36.1985 83.1517 34.6615C81.493 33.1244 80.6637 30.9048 80.6637 28.0026V23.295C80.6637 20.3935 81.493 18.1742 83.1517 16.6371C84.8104 15.1001 86.9934 14.3316 89.7006 14.3316C91.8616 14.3316 93.9896 14.6649 96.0846 15.3313L95.1683 19.2005C93.3344 18.6416 91.5225 18.3621 89.7326 18.3621C86.8955 18.3621 85.4769 20.1357 85.4769 23.6827V27.5834C85.4769 29.4754 85.8425 30.8405 86.5736 31.6789C87.3047 32.5173 88.3577 32.9365 89.7326 32.9365C91.6537 32.9365 93.4657 32.6462 95.1683 32.0656Z" fill="white"/>
<path d="M116.285 14.7508V36.5479H111.472V27.2616C111.472 26.1005 111.515 24.961 111.602 23.8431L103.45 36.5479H99.521V14.7508H104.334V24.1984C104.334 25.187 104.301 26.294 104.235 27.5194L112.389 14.7508H116.285Z" fill="white"/>
<path d="M134.814 14.7508V36.5479H130.001V28.5832H128.168L124.631 36.5479H119.262L123.387 27.9062C122.165 27.3689 121.215 26.5413 120.539 25.4235C119.862 24.3056 119.523 23.0697 119.523 21.7157C119.523 19.8021 120.195 18.1629 121.537 16.798C122.88 15.4332 124.632 14.7508 126.793 14.7508H134.814ZM127.021 24.65H130.001V18.7813H127.021C126.257 18.7813 125.624 19.0554 125.122 19.6035C124.621 20.1516 124.37 20.8557 124.37 21.7157C124.37 22.5967 124.615 23.306 125.106 23.8436C125.597 24.3812 126.235 24.65 127.021 24.65Z" fill="white"/>
<defs>
<linearGradient id="paint0_linear_8_111" x1="172.736" y1="5.98798" x2="172.736" y2="45.3352" gradientUnits="userSpaceOnUse">
<stop stop-color="#E41E26"/>
<stop offset="1" stop-color="#BC2025"/>
</linearGradient>
<linearGradient id="paint1_linear_8_111" x1="79.5666" y1="-17.1216" x2="79.5666" y2="69.5217" gradientUnits="userSpaceOnUse">
<stop stop-color="#5481C1"/>
<stop offset="0.1863" stop-color="#4C75B8"/>
<stop offset="0.5473" stop-color="#375CA5"/>
<stop offset="1" stop-color="#1E398D"/>
</linearGradient>
</defs>
</svg>
