<svg width="204" height="52" viewBox="0 0 204 52" fill="none" xmlns="http://www.w3.org/2000/svg">
<path d="M90.8909 19.3122L95.0859 16.1877H81.0415V34.9042H95.0859V31.7796H85.0542V27.001H93.6268V23.8765H85.0542V19.3122H90.8909Z" fill="#21A038"/>
<path d="M70.432 23.4782H65.5682V19.3122H73.3505L77.5455 16.1877H61.5554V34.9042H69.9152C74.5968 34.9042 77.3022 32.7599 77.3022 29.0227C77.3022 25.4387 74.8703 23.4782 70.432 23.4782ZM69.7632 31.7796H65.5682V26.6027H69.7632C72.3169 26.6027 73.5025 27.4604 73.5025 29.2065C73.5025 30.9526 72.2256 31.7796 69.7632 31.7796Z" fill="#21A038"/>
<path d="M106.455 16.1877H98.8251V34.9042H102.838V29.6046H106.486C111.35 29.6046 114.389 27.0316 114.389 22.8962C114.389 18.7608 111.35 16.1877 106.455 16.1877ZM106.364 26.4802H102.807V19.3122H106.364C108.948 19.3122 110.346 20.5988 110.346 22.8962C110.346 25.1936 108.948 26.4802 106.364 26.4802Z" fill="#21A038"/>
<path d="M54.6852 30.8605C53.6214 31.4426 52.4358 31.7489 51.2197 31.7489C47.6022 31.7489 44.9878 29.1452 44.9878 25.5612C44.9878 21.9772 47.6022 19.3735 51.2197 19.3735C52.5268 19.3428 53.8036 19.7717 54.8677 20.5375L57.7556 18.3932L57.5732 18.2094C55.9013 16.7084 53.6516 15.9426 51.0982 15.9426C48.3318 15.9426 45.8086 16.8922 43.9847 18.6077C42.1606 20.3843 41.1271 22.8656 41.188 25.4387C41.1575 28.0424 42.1606 30.5544 43.9847 32.3921C45.8999 34.1996 48.4533 35.2103 51.0677 35.1492C53.9557 35.1492 56.4788 34.1382 58.1812 32.3003L55.5973 30.3705L54.6852 30.8605Z" fill="#21A038"/>
<path d="M162.633 16.2184V34.9347H166.646V27.2766H175.188V34.9347H179.201V16.2184H175.188V23.9071H166.646V16.2184H162.633ZM155.733 34.9347H159.958L152.115 16.2184H148.042L140.046 34.9347H144.09L145.701 31.1669H154.213L155.733 34.9347ZM146.917 28.0425L150.018 20.5375L152.936 28.0425H146.917ZM188.199 27.3685H190.692L196.832 34.9042H202L193.793 25.2243L200.966 16.1877H196.377L190.418 24.2134H188.199V16.1877H184.186V34.9042H188.199V27.3685ZM126.793 23.5089V19.3429H137.28V16.2184H122.78V34.9347H131.14C135.821 34.9347 138.527 32.7905 138.527 29.0533C138.527 25.4693 136.095 23.5089 131.656 23.5089H126.793ZM126.793 31.8103V26.6334H130.988C133.541 26.6334 134.727 27.4911 134.727 29.2371C134.727 30.9833 133.48 31.8408 130.988 31.8408H126.793V31.8103Z" fill="#21A038"/>
<path d="M28.633 16.0652C29.3625 17.0148 29.9705 18.0563 30.4873 19.1591L16.4429 29.6046L10.5454 25.8675V21.3952L16.4125 25.1017L28.633 16.0652Z" fill="#21A038"/>
<path d="M4.55672 25.5612C4.55672 25.3468 4.55672 25.163 4.58712 24.9486L1.0304 24.7648C1.0304 25.0098 1 25.2855 1 25.5306C1 29.8192 2.73276 33.7094 5.52949 36.5276L8.05264 33.9851C5.89429 31.8408 4.55672 28.8695 4.55672 25.5612Z" fill="url(#paint0_linear_8_125)"/>
<path d="M16.4125 13.6146C16.6252 13.6146 16.8077 13.6146 17.0204 13.6452L17.2028 10.0612C16.9596 10.0612 16.6861 10.0306 16.4429 10.0306C12.1869 10.0306 8.32623 11.7767 5.5295 14.5948L8.05264 17.1373C10.1806 14.9624 13.1597 13.6146 16.4125 13.6146Z" fill="url(#paint1_linear_8_125)"/>
<path d="M16.4125 37.5078C16.1997 37.5078 16.0173 37.5078 15.8045 37.4772L15.6221 41.0612C15.8653 41.0612 16.1389 41.0917 16.3821 41.0917C20.6379 41.0917 24.4986 39.3458 27.2953 36.5276L24.7722 33.9851C22.6443 36.1906 19.6956 37.5078 16.4125 37.5078Z" fill="url(#paint2_linear_8_125)"/>
<path d="M23.1003 15.6976L26.1098 13.4615C23.4651 11.3172 20.0908 10 16.4124 10V13.584C18.9052 13.6146 21.2156 14.3804 23.1003 15.6976Z" fill="url(#paint3_linear_8_125)"/>
<path d="M31.8554 25.5612C31.8554 24.6116 31.7641 23.6926 31.6121 22.7737L28.2987 25.2549C28.2987 25.3468 28.2987 25.4693 28.2987 25.5612C28.2987 29.0839 26.7786 32.2391 24.3771 34.4139L26.7786 37.0789C29.8793 34.2608 31.8554 30.1255 31.8554 25.5612Z" fill="#21A038"/>
<path d="M16.4125 37.5078C12.9166 37.5078 9.78541 35.9762 7.62707 33.5562L4.98232 35.9762C7.80946 39.1313 11.883 41.0917 16.4125 41.0917V37.5078Z" fill="url(#paint4_linear_8_125)"/>
<path d="M8.47824 16.7085L6.0767 14.0434C2.94556 16.8923 1 20.997 1 25.5612H4.55672C4.55672 22.0691 6.0767 18.8834 8.47824 16.7085Z" fill="url(#paint5_linear_8_125)"/>
<defs>
<linearGradient id="paint0_linear_8_125" x1="5.14996" y1="36.0915" x2="1.51837" y2="25.5137" gradientUnits="userSpaceOnUse">
<stop offset="0.1444" stop-color="#F2E913"/>
<stop offset="0.3037" stop-color="#E7E518"/>
<stop offset="0.5823" stop-color="#CADB26"/>
<stop offset="0.891" stop-color="#A3CD39"/>
</linearGradient>
<linearGradient id="paint1_linear_8_125" x1="6.54333" y1="14.1904" x2="15.7629" y2="10.65" gradientUnits="userSpaceOnUse">
<stop offset="0.0592" stop-color="#0FA8E0"/>
<stop offset="0.5385" stop-color="#0099F9"/>
<stop offset="0.9234" stop-color="#0291EB"/>
</linearGradient>
<linearGradient id="paint2_linear_8_125" x1="15.4132" y1="38.0438" x2="26.4044" y2="35.5407" gradientUnits="userSpaceOnUse">
<stop offset="0.1226" stop-color="#A3CD39"/>
<stop offset="0.2846" stop-color="#86C339"/>
<stop offset="0.8693" stop-color="#21A038"/>
</linearGradient>
<linearGradient id="paint3_linear_8_125" x1="15.6817" y1="12.2827" x2="24.8201" y2="15.124" gradientUnits="userSpaceOnUse">
<stop offset="0.0566" stop-color="#0291EB"/>
<stop offset="0.79" stop-color="#0C8ACB"/>
</linearGradient>
<linearGradient id="paint4_linear_8_125" x1="5.88666" y1="36.544" x2="15.7023" y2="40.2397" gradientUnits="userSpaceOnUse">
<stop offset="0.1324" stop-color="#F2E913"/>
<stop offset="0.2977" stop-color="#EBE716"/>
<stop offset="0.5306" stop-color="#D9E01F"/>
<stop offset="0.8023" stop-color="#BBD62D"/>
<stop offset="0.9829" stop-color="#A3CD39"/>
</linearGradient>
<linearGradient id="paint5_linear_8_125" x1="3.72524" y1="25.9941" x2="7.65132" y2="15.7026" gradientUnits="userSpaceOnUse">
<stop offset="0.0698" stop-color="#A3CD39"/>
<stop offset="0.2599" stop-color="#81C55F"/>
<stop offset="0.9216" stop-color="#0FA8E0"/>
</linearGradient>
</defs>
</svg>
