<svg width="204" height="52" viewBox="0 0 204 52" fill="none" xmlns="http://www.w3.org/2000/svg">
<path d="M155.778 33.7174L155.038 42.588C154.933 43.8552 153.877 44.7 152.715 44.7H89.1426C87.7698 44.7 86.7138 43.5384 86.8194 42.1655L87.5586 33.295C87.6642 32.0277 88.7202 31.1829 89.8818 31.1829H153.349C154.827 31.0773 155.883 32.2389 155.778 33.7174Z" fill="#E95D30"/>
<path d="M94.6339 33.6118L93.8947 42.588C93.7891 43.7496 92.8387 44.7 91.5714 44.7H49.3305C47.9577 44.7 46.9017 43.5384 47.0073 42.1656L47.7465 33.1894C47.8521 32.0277 48.8025 31.0773 50.0697 31.0773H92.3106C93.6835 31.0773 94.7395 32.2389 94.6339 33.6118Z" fill="#9AD0BF"/>
<path d="M69.0782 15.9762C69.0782 15.9762 69.6062 10.1681 69.6062 9.64006C69.8174 8.68964 69.0782 7 67.2829 7H62.0028H58.8348H58.3068H52.6042C50.809 7 49.9642 8.16162 49.8586 9.32325C49.8586 10.0625 48.5913 24.1076 48.4857 24.8468C48.3801 26.114 49.225 27.5924 50.9146 27.5924H57.0395H59.6796H65.4877C67.3885 27.5924 68.1278 26.5364 68.339 24.9524C68.4446 24.002 68.867 18.2994 68.867 18.2994H60.102L59.6796 22.8403H57.4619L58.4124 11.8577H60.7356L60.4188 15.9762H69.0782Z" fill="#008695"/>
<path d="M82.7008 8.79524C82.384 9.74566 79.8496 17.6658 79.8496 17.6658L81.0112 7H72.2462L70.451 27.5924H77.1039C78.7936 27.5924 79.3216 26.642 79.6384 25.9028C79.9552 24.9524 82.384 18.2994 82.384 18.2994L81.4336 27.698H90.1986L91.9938 7C91.9938 7 85.6577 7 85.1297 7C83.5457 7 82.9121 8.16162 82.7008 8.79524Z" fill="#008695"/>
<path d="M127.265 7L126.42 16.3986H124.203L125.047 7H116.282C116.282 7 115.438 16.9266 115.332 17.877C115.226 19.0387 115.86 20.6227 117.866 20.6227H126.103L125.892 22.7347H114.91L114.487 27.5924H125.892H126.42H132.123C133.284 27.5924 134.446 26.8532 134.657 25.1636C134.763 24.1076 136.241 7 136.241 7H127.265Z" fill="#008695"/>
<path d="M146.273 16.9266L146.696 11.8577H148.913L148.385 16.9266H146.273ZM150.286 7H147.118H138.353L136.558 27.5924H145.323L145.851 21.2563H149.019H148.385H154.405C155.883 21.2563 156.939 20.5171 157.045 18.7218C157.15 18.0882 157.784 10.1681 157.89 9.53445C157.995 8.05602 156.728 7 155.25 7L150.286 7Z" fill="#008695"/>
<path d="M103.821 23.3683H101.604L102.026 18.2994H104.244L103.821 23.3683ZM102.448 13.9697L102.66 11.8577H113.642L114.065 7H102.976H102.448H94.1059L92.4163 27.5924H95.6899C95.6899 27.5924 108.89 27.5924 109.946 27.5924C111.108 27.5924 112.269 26.9588 112.481 25.1636C112.586 23.8964 113.114 17.7714 113.22 16.6098C113.326 15.1314 112.375 13.8641 110.58 13.8641H102.448V13.9697Z" fill="#008695"/>
<path d="M69.0782 15.9762C69.0782 15.9762 69.6062 10.1681 69.6062 9.64006C69.8174 8.68964 69.0782 7 67.2829 7H62.0028H58.8348H58.3068H52.6042C50.809 7 49.9642 8.16162 49.8586 9.32325C49.8586 10.0625 48.5913 24.1076 48.4857 24.8468C48.3801 26.114 49.225 27.5924 50.9146 27.5924H57.0395H59.6796H65.4877C67.3885 27.5924 68.1278 26.5364 68.339 24.9524C68.4446 24.002 68.867 18.2994 68.867 18.2994H60.102L59.6796 22.8403H57.4619L58.4124 11.8577H60.7356L60.4188 15.9762H69.0782Z" fill="#008695"/>
<path d="M82.7008 8.79524C82.384 9.74566 79.8496 17.6658 79.8496 17.6658L81.0112 7H72.2462L70.451 27.5924H77.1039C78.7936 27.5924 79.3216 26.642 79.6384 25.9028C79.9552 24.9524 82.384 18.2994 82.384 18.2994L81.4336 27.698H90.1986L91.9938 7C91.9938 7 85.6577 7 85.1297 7C83.5457 7 82.9121 8.16162 82.7008 8.79524Z" fill="#008695"/>
<path d="M127.265 7L126.42 16.3986H124.203L125.047 7H116.282C116.282 7 115.438 16.9266 115.332 17.877C115.226 19.0387 115.86 20.6227 117.866 20.6227H126.103L125.892 22.7347H114.91L114.487 27.5924H125.892H126.42H132.123C133.284 27.5924 134.446 26.8532 134.657 25.1636C134.763 24.1076 136.241 7 136.241 7H127.265Z" fill="#008695"/>
<path d="M146.273 16.9266L146.696 11.8577H148.913L148.385 16.9266H146.273ZM150.286 7H147.118H138.353L136.558 27.5924H145.323L145.851 21.2563H149.019H148.385H154.405C155.883 21.2563 156.939 20.5171 157.045 18.7218C157.15 18.0882 157.784 10.1681 157.89 9.53445C157.995 8.05602 156.728 7 155.25 7L150.286 7Z" fill="#008695"/>
<path d="M103.821 23.3683H101.604L102.026 18.2994H104.244L103.821 23.3683ZM102.448 13.9697L102.66 11.8577H113.642L114.065 7H102.976H102.448H94.1059L92.4163 27.5924H95.6899C95.6899 27.5924 108.89 27.5924 109.946 27.5924C111.108 27.5924 112.269 26.9588 112.481 25.1636C112.586 23.8964 113.114 17.7714 113.22 16.6098C113.326 15.1314 112.375 13.8641 110.58 13.8641H102.448V13.9697Z" fill="#008695"/>
<path d="M56.8283 34.9846H53.2378L53.0266 37.2022H54.8219C55.5611 37.2022 56.1947 37.4134 56.5115 37.8359C56.9339 38.2583 57.0395 38.7863 57.0395 39.4199C56.9339 40.0535 56.7227 40.5815 56.3003 41.0039C55.8779 41.4263 55.2443 41.6375 54.5051 41.6375H51.7594L52.393 34.351H56.9339L56.8283 34.9846ZM53.0266 38.0471L52.7098 40.7927H54.5051C55.0331 40.7927 55.3499 40.6871 55.6667 40.3703C55.9835 40.1591 56.0891 39.7367 56.1947 39.3143C56.1947 38.8919 56.0891 38.5751 55.8779 38.3639C55.6667 38.1527 55.2443 38.0471 54.8219 38.0471H53.0266Z" fill="white"/>
<path d="M64.2204 34.2454L63.5868 41.5319H62.6364L63.1644 34.9846H60.5243L60.1019 37.8359C59.9963 38.7863 59.7851 39.5255 59.5739 40.0535C59.3627 40.5815 59.1515 40.8983 58.8347 41.1095C58.5179 41.3207 58.0955 41.4263 57.6731 41.4263H57.4619L57.5675 40.7927H57.7787C58.0955 40.7927 58.3067 40.6871 58.5179 40.4759C58.7291 40.2647 58.8347 40.0535 58.9403 39.6311C59.0459 39.2087 59.1515 38.6807 59.2571 37.8359L59.6795 34.2454H64.2204Z" fill="white"/>
<path d="M70.3454 34.2454H71.2958L70.6622 41.5319H69.7118L70.2398 35.935L66.1213 41.5319H65.1709L65.8045 34.2454H66.7549L66.2269 39.8423L70.3454 34.2454Z" fill="white"/>
<path d="M83.1232 38.5751C83.0176 39.6311 82.8064 40.3703 82.2784 40.8983C81.856 41.4263 81.2224 41.7431 80.3776 41.7431C79.5327 41.7431 79.0047 41.5319 78.5823 41.0039C78.1599 40.4759 78.0543 39.7367 78.1599 38.7863L78.2655 37.4134C78.3711 36.3574 78.5823 35.6182 79.1103 35.0902C79.5327 34.5622 80.1664 34.2454 81.0112 34.2454C81.856 34.2454 82.384 34.4566 82.8064 34.9846C83.2288 35.5126 83.3344 36.2518 83.2288 37.2022L83.1232 38.5751ZM81.7504 37.0966C81.856 36.463 81.7504 36.0406 81.6448 35.7238C81.5392 35.407 81.2224 35.3014 80.9056 35.3014C80.5888 35.3014 80.272 35.407 80.1664 35.7238C79.9552 35.935 79.8496 36.3574 79.8496 36.991L79.6383 38.6807C79.6383 39.3143 79.6383 39.7367 79.7439 40.0535C79.8496 40.3703 80.1664 40.4759 80.4832 40.4759C80.8 40.4759 81.1168 40.3703 81.328 40.0535C81.5392 39.7367 81.6448 39.3143 81.6448 38.7863L81.7504 37.0966Z" fill="#008695"/>
<path d="M86.3969 38.2583H85.5521L85.2353 41.5319H84.2849L84.9185 34.2454H85.8689L85.6577 37.4134H86.3969L89.2482 34.2454H90.4098L87.3473 37.8359L89.9874 41.5319H88.8257L86.3969 38.2583Z" fill="white"/>
<path d="M100.759 38.2583H99.8084L99.5972 41.5319H98.6468L99.2804 34.2454H100.231L99.914 37.4134H100.653L103.504 34.2454H104.666L101.604 37.8359L104.244 41.5319H103.082L100.759 38.2583Z" fill="white"/>
<path d="M109.735 39.6311H106.673L105.828 41.5319H104.877L108.362 34.2454H109.207L111.319 41.5319H110.369L109.735 39.6311ZM106.989 38.8919H109.524L108.573 35.5126L106.989 38.8919Z" fill="white"/>
<path d="M117.972 38.2583H117.127L116.81 41.5319H115.86L116.177 38.2583H115.332L113.009 41.5319H111.741L114.593 37.7303L112.586 34.2454H113.748L115.438 37.4134H116.282L116.494 34.2454H117.444L117.233 37.4134H117.972L120.19 34.2454H121.351L118.817 37.7303L120.929 41.5319H119.662L117.972 38.2583Z" fill="white"/>
<path d="M128.532 42.7992H127.582L127.687 41.6375H122.407L122.302 42.9048H121.351L121.562 40.8983H122.196C122.513 40.5815 122.83 40.0535 123.041 39.4199C123.252 38.7863 123.463 38.1527 123.569 37.4134L123.991 34.2454H128.321L127.793 40.7927H128.743L128.532 42.7992ZM123.252 40.7927H126.843L127.371 35.0902H124.942L124.625 37.2022C124.519 38.0471 124.308 38.7863 124.097 39.3143C123.78 39.9479 123.569 40.3703 123.252 40.7927Z" fill="white"/>
<path d="M135.291 38.1527C135.185 38.8919 135.08 39.5255 134.763 40.0535C134.446 40.5815 134.129 41.0039 133.601 41.3207C133.179 41.6375 132.651 41.7431 132.017 41.7431C131.489 41.7431 130.961 41.6375 130.539 41.3207C130.116 41.0039 129.799 40.5815 129.588 40.1591C129.377 39.6311 129.271 38.9975 129.377 38.3639V37.8359C129.483 37.0966 129.588 36.463 129.905 35.935C130.222 35.407 130.539 34.9846 131.067 34.6678C131.489 34.351 132.017 34.2454 132.651 34.2454C133.284 34.2454 133.707 34.351 134.129 34.6678C134.552 34.9846 134.868 35.407 135.08 35.935C135.291 36.463 135.291 37.0966 135.291 37.8359V38.1527ZM134.446 37.6246C134.552 36.7798 134.446 36.0406 134.129 35.6182C133.812 35.1958 133.39 34.879 132.756 34.879C132.123 34.879 131.595 35.0902 131.278 35.6182C130.855 36.0406 130.644 36.6742 130.539 37.519V38.0471C130.433 38.8919 130.539 39.5255 130.855 40.0535C131.172 40.5815 131.595 40.7927 132.228 40.7927C132.862 40.7927 133.39 40.5815 133.707 40.1591C134.129 39.7367 134.34 39.1031 134.446 38.2583V37.6246Z" fill="white"/>
<path d="M138.142 34.2454L139.937 40.1591L142.894 34.2454H144.161L143.528 41.5319H142.577L142.788 38.6807L143.105 35.6182L140.254 41.5319H139.515L137.614 35.6182L137.403 38.6807L137.192 41.5319H136.241L136.875 34.2454H138.142Z" fill="white"/>
<path d="M147.752 38.4695L149.758 34.2454H150.92L147.752 40.3703C147.541 40.7927 147.329 41.0039 147.224 41.2151C147.013 41.4263 146.907 41.5319 146.696 41.6375C146.485 41.7431 146.273 41.7431 145.957 41.7431C145.64 41.7431 145.534 41.7431 145.429 41.7431L145.534 41.0039H145.957C146.273 41.0039 146.59 40.7927 146.801 40.4759L146.907 40.2647L147.118 39.8423L145.112 34.4566H146.168L147.752 38.4695Z" fill="white"/>
<path d="M74.0414 37.2022H74.7807C75.0975 37.2022 75.4143 37.0966 75.6255 36.8854C75.8367 36.6742 75.9423 36.463 75.9423 36.1462C75.9423 35.8294 75.9423 35.6182 75.7311 35.407C75.5199 35.1958 75.3087 35.1958 74.9919 35.1958C74.6751 35.1958 74.4639 35.3014 74.2527 35.407C74.0414 35.5126 73.9358 35.7238 73.9358 36.0406H72.4574C72.4574 35.6182 72.6686 35.3014 72.8798 34.9846C73.091 34.6678 73.4078 34.4566 73.8302 34.2454C74.2527 34.0342 74.6751 34.0342 75.0975 34.0342C75.8367 34.0342 76.4703 34.2454 76.8927 34.5622C77.3151 34.9846 77.5263 35.407 77.4207 36.0406C77.4207 36.3574 77.3151 36.6742 76.9983 36.991C76.7871 37.3078 76.4703 37.5191 76.1535 37.6247C76.5759 37.7303 76.8927 37.9415 76.9983 38.2583C77.2095 38.5751 77.2095 38.8919 77.2095 39.3143C77.1039 39.9479 76.8927 40.4759 76.3647 40.8983C75.8367 41.3207 75.2031 41.5319 74.4639 41.5319C73.7246 41.5319 73.1966 41.3207 72.7742 41.0039C72.3518 40.5815 72.1406 40.1591 72.2462 39.5255H73.7246C73.7246 39.8423 73.8302 40.0535 73.9358 40.1591C74.1471 40.3703 74.3583 40.3703 74.6751 40.3703C74.9919 40.3703 75.3087 40.2647 75.5199 40.0535C75.7311 39.8423 75.8367 39.6311 75.8367 39.3143C75.9423 38.5751 75.5199 38.2583 74.6751 38.2583H73.9358L74.0414 37.2022Z" fill="#008695"/>
</svg>
