<svg width="257" height="10" viewBox="0 0 257 10" fill="none" xmlns="http://www.w3.org/2000/svg">
<rect y="3.05176e-05" width="22" height="10" rx="5" fill="#AC7C4C"/>
<rect x="26" y="3.05176e-05" width="22" height="10" rx="5" fill="#AC7C4C"/>
<rect x="52" y="3.05176e-05" width="22" height="10" rx="5" fill="#AC7C4C"/>
<rect x="78" y="3.05176e-05" width="22" height="10" rx="5" fill="#AC7C4C"/>
<rect x="104" y="3.05176e-05" width="22" height="10" rx="5" fill="#AC7C4C"/>
<rect x="131" y="3.05176e-05" width="21" height="10" rx="5" fill="#AC7C4C"/>
<rect x="157" y="3.05176e-05" width="21" height="10" rx="5" fill="#AC7C4C"/>
<rect x="183" y="3.05176e-05" width="21" height="10" rx="5" fill="#AC7C4C"/>
<rect x="209" y="3.05176e-05" width="22" height="10" rx="5" fill="#D9D9D9"/>
<rect x="235" y="3.05176e-05" width="22" height="10" rx="5" fill="#D9D9D9"/>
</svg>
