<svg width="37" height="35" viewBox="0 0 37 35" fill="none" xmlns="http://www.w3.org/2000/svg">
<path d="M35.4127 0.920919C35.048 0.664925 34.6205 0.513383 34.1766 0.482709C33.7327 0.452036 33.2892 0.543401 32.8943 0.746907L2.14236 16.5355C1.67334 16.7763 1.2954 17.1628 1.0651 17.6371C0.8348 18.1114 0.764516 18.648 0.864768 19.1666C0.96502 19.6853 1.23042 20.1581 1.62125 20.5143C2.01208 20.8705 2.50733 21.0909 3.03289 21.1426L11.6258 21.9879L12.7019 32.444C12.751 32.9252 12.9417 33.3815 13.25 33.7551C13.5582 34.1286 13.9701 34.4027 14.4335 34.5425C14.8968 34.6824 15.3908 34.6817 15.8528 34.5405C16.3149 34.3994 16.7242 34.1242 17.0289 33.7498L21.2768 28.541L29.0007 34.0697C29.4814 34.4171 30.0721 34.5768 30.6612 34.5188C30.9172 34.493 31.1675 34.4272 31.403 34.324C31.7917 34.1565 32.1293 33.8898 32.3822 33.5506C32.6351 33.2114 32.7944 32.8115 32.8443 32.3909L36.4416 3.22894C36.4967 2.78767 36.4299 2.33934 36.2486 1.9325C36.0672 1.52567 35.7782 1.17585 35.4127 0.920919ZM2.92145 18.7755C2.90245 18.7013 2.91036 18.6228 2.94378 18.554C2.97719 18.4853 3.03395 18.4306 3.10396 18.3999L28.8355 5.18876L12.2239 19.9425L3.23112 19.0578C3.15457 19.0549 3.08145 19.0249 3.02475 18.9732C2.96805 18.9216 2.93145 18.8515 2.92145 18.7755ZM15.4038 32.4228C15.3602 32.4763 15.3018 32.5155 15.2358 32.5357C15.1698 32.5558 15.0992 32.5559 15.0331 32.5359C14.9669 32.5159 14.9081 32.4768 14.864 32.4235C14.82 32.3701 14.7927 32.305 14.7857 32.2363L13.8589 23.2313L19.5673 27.3174L15.4038 32.4228ZM30.7652 32.1277C30.7578 32.1877 30.7349 32.2447 30.6989 32.2931C30.6628 32.3415 30.6147 32.3797 30.5593 32.4039C30.504 32.4281 30.4432 32.4374 30.3831 32.4311C30.3229 32.4247 30.2654 32.4029 30.2161 32.3676L14.2564 20.9438L34.3459 3.10106L30.7652 32.1277Z" fill="#AC7C4C"/>
</svg>
