<svg width="132" height="35" viewBox="0 0 132 35" fill="none" xmlns="http://www.w3.org/2000/svg">
<path d="M43.6167 27.6042C43.9948 27.747 44.6484 27.9622 45.5787 27.9622C48.8133 27.9622 50.1216 25.6355 51.9464 21.0208L59.2098 2.73608H55.3193L50.3971 15.9042L45.3032 2.73608H41L48.298 21.0559C47.5741 22.8807 46.8513 24.1324 45.1994 24.1324C44.4421 24.1324 43.9613 24.0259 43.6156 23.8832V27.6031L43.6167 27.6042ZM65.4437 27.9622C67.3365 27.9622 68.6783 27.6042 69.6777 26.8521V23.3825C68.6448 24.1347 67.4056 24.5991 65.6846 24.5991C62.7578 24.5991 61.5532 22.2385 61.5532 18.5163C61.5532 14.6163 63.0333 12.6125 65.7192 12.6125C67.303 12.6125 68.8512 13.1856 69.6777 13.7226V10.1056C68.8166 9.60498 67.3019 9.24703 65.2719 9.24703C60.0396 9.24703 57.3192 13.147 57.3192 18.6216C57.3192 24.633 59.9705 27.961 65.4437 27.961V27.9622ZM70.8845 23.9183V27.6031C70.8845 27.6031 71.5381 27.9622 72.5018 27.9622C76.013 27.9622 76.9076 25.3852 77.115 19.4112L77.356 12.9692H81.5208V27.6031H85.6165V9.60732H73.8793L73.5347 19.2322C73.3975 23.0609 73.1554 24.2423 71.8136 24.2423C71.228 24.2423 70.8845 23.9183 70.8845 23.9183ZM91.2715 33.1501C95.0928 33.1501 96.5038 30.324 97.6749 26.638L103.079 9.60615H99.1205L95.2992 23.131L91.479 9.60615H87.1758L93.1308 28.3915C92.6836 29.2501 92.0288 29.787 90.8934 29.787C90.136 29.787 89.4824 29.5367 89.034 29.0711V32.5418C89.034 32.5418 89.6542 33.1501 91.2715 33.1501ZM104.633 9.60615V27.6042H108.729V12.9704H115.063V9.60498H104.633V9.60615ZM117.474 9.60615V27.6042H121.02L127.353 16.4762V27.6042H131.346V9.60615H127.8L121.467 20.7342V9.60615H117.474Z" fill="black"/>
<path d="M16 34.1989C24.8366 34.1989 32 26.6861 32 17.4187C32 8.15128 24.8366 0.63855 16 0.63855C7.16344 0.63855 0 8.15128 0 17.4187C0 26.6861 7.16344 34.1989 16 34.1989Z" fill="#242729"/>
<path d="M11.1612 6.50917C9.42415 7.71733 8.20867 9.59228 7.77625 11.7307C7.34382 13.8691 7.72899 16.1 8.8489 17.9436C9.96882 19.7873 11.734 21.0962 13.7647 21.5889C15.7954 22.0816 17.9293 21.7186 19.7075 20.5781L31.3806 12.779C30.5788 9.86549 29.0404 7.23378 26.9285 5.16273C24.8165 3.09167 22.2096 1.65842 19.384 1.01486L11.1612 6.50917Z" fill="#FF9D7C"/>
<path d="M11.1612 6.50917C9.42415 7.71733 8.20867 9.59228 7.77625 11.7307C7.34382 13.8691 7.72899 16.1 8.8489 17.9436C9.96882 19.7873 11.734 21.0962 13.7647 21.5889C15.7954 22.0816 17.9293 21.7186 19.7075 20.5781L31.3806 12.779C30.5788 9.86549 29.0404 7.23378 26.9285 5.16273C24.8165 3.09167 22.2096 1.65842 19.384 1.01486L11.1612 6.50917Z" fill="#FF6432"/>
<path d="M11.1612 6.50917C9.42415 7.71733 8.20867 9.59228 7.77625 11.7307C7.34382 13.8691 7.72899 16.1 8.8489 17.9436C9.96882 19.7873 11.734 21.0962 13.7647 21.5889C15.7954 22.0816 17.9293 21.7186 19.7075 20.5781L31.3806 12.779C30.5788 9.86549 29.0404 7.23378 26.9285 5.16273C24.8165 3.09167 22.2096 1.65842 19.384 1.01486L11.1612 6.50917Z" fill="url(#paint0_radial_230_1113)"/>
<path d="M11.1612 6.50917C9.42415 7.71733 8.20867 9.59228 7.77625 11.7307C7.34382 13.8691 7.72899 16.1 8.8489 17.9436C9.96882 19.7873 11.734 21.0962 13.7647 21.5889C15.7954 22.0816 17.9293 21.7186 19.7075 20.5781L31.3806 12.779C30.5788 9.86549 29.0404 7.23378 26.9285 5.16273C24.8165 3.09167 22.2096 1.65842 19.384 1.01486L11.1612 6.50917Z" fill="url(#paint1_linear_230_1113)"/>
<path d="M0.617188 22.0499L12.2949 14.2472C13.1758 13.6586 14.1586 13.2579 15.1872 13.0677C16.2158 12.8775 17.2701 12.9017 18.2897 13.1388C19.3094 13.3759 20.2746 13.8214 21.1302 14.4497C21.9857 15.078 22.7149 15.8769 23.276 16.8007C23.8372 17.7246 24.2194 18.7553 24.4007 19.8341C24.582 20.9128 24.559 22.0185 24.3329 23.0879C24.1068 24.1573 23.6821 25.1696 23.083 26.0668C22.4838 26.9641 21.7221 27.7288 20.8412 28.3173L12.6046 33.82C9.78007 33.1744 7.17463 31.7396 5.0643 29.6675C2.95396 27.5954 1.41733 24.9633 0.617188 22.0499Z" fill="#FFE66E"/>
<path d="M0.617188 22.0499L12.2949 14.2472C13.1758 13.6586 14.1586 13.2579 15.1872 13.0677C16.2158 12.8775 17.2701 12.9017 18.2897 13.1388C19.3094 13.3759 20.2746 13.8214 21.1302 14.4497C21.9857 15.078 22.7149 15.8769 23.276 16.8007C23.8372 17.7246 24.2194 18.7553 24.4007 19.8341C24.582 20.9128 24.559 22.0185 24.3329 23.0879C24.1068 24.1573 23.6821 25.1696 23.083 26.0668C22.4838 26.9641 21.7221 27.7288 20.8412 28.3173L12.6046 33.82C9.78007 33.1744 7.17463 31.7396 5.0643 29.6675C2.95396 27.5954 1.41733 24.9633 0.617188 22.0499Z" fill="url(#paint2_linear_230_1113)"/>
<defs>
<radialGradient id="paint0_radial_230_1113" cx="0" cy="0" r="1" gradientUnits="userSpaceOnUse" gradientTransform="translate(12.3223 24.0181) rotate(-36.1728) scale(19.4693 14.5511)">
<stop stop-color="#CC0700" stop-opacity="0.97"/>
<stop offset="0.067" stop-color="#CC0700" stop-opacity="0.962"/>
<stop offset="0.133" stop-color="#CC0700" stop-opacity="0.936"/>
<stop offset="0.2" stop-color="#CC0700" stop-opacity="0.891"/>
<stop offset="0.267" stop-color="#CC0700" stop-opacity="0.827"/>
<stop offset="0.333" stop-color="#CC0700" stop-opacity="0.745"/>
<stop offset="0.4" stop-color="#CC0700" stop-opacity="0.648"/>
<stop offset="0.467" stop-color="#CC0700" stop-opacity="0.541"/>
<stop offset="0.533" stop-color="#CC0700" stop-opacity="0.429"/>
<stop offset="0.6" stop-color="#CC0700" stop-opacity="0.322"/>
<stop offset="0.667" stop-color="#CC0700" stop-opacity="0.225"/>
<stop offset="0.733" stop-color="#CC0700" stop-opacity="0.143"/>
<stop offset="0.8" stop-color="#CC0700" stop-opacity="0.079"/>
<stop offset="0.867" stop-color="#CC0700" stop-opacity="0.034"/>
<stop offset="0.933" stop-color="#CC0700" stop-opacity="0.01"/>
<stop offset="1" stop-color="#CC0700" stop-opacity="0"/>
</radialGradient>
<linearGradient id="paint1_linear_230_1113" x1="13.3498" y1="19.6984" x2="25.3794" y2="-7.98763" gradientUnits="userSpaceOnUse">
<stop stop-color="#FF8140" stop-opacity="0"/>
<stop offset="0.067" stop-color="#FF8140" stop-opacity="0.01"/>
<stop offset="0.133" stop-color="#FF8140" stop-opacity="0.036"/>
<stop offset="0.2" stop-color="#FF8140" stop-opacity="0.082"/>
<stop offset="0.267" stop-color="#FF8140" stop-opacity="0.147"/>
<stop offset="0.333" stop-color="#FF8140" stop-opacity="0.232"/>
<stop offset="0.4" stop-color="#FF8140" stop-opacity="0.332"/>
<stop offset="0.467" stop-color="#FF8140" stop-opacity="0.443"/>
<stop offset="0.533" stop-color="#FF8140" stop-opacity="0.557"/>
<stop offset="0.6" stop-color="#FF8140" stop-opacity="0.668"/>
<stop offset="0.667" stop-color="#FF8140" stop-opacity="0.768"/>
<stop offset="0.733" stop-color="#FF8140" stop-opacity="0.853"/>
<stop offset="0.8" stop-color="#FF8140" stop-opacity="0.918"/>
<stop offset="0.867" stop-color="#FF8140" stop-opacity="0.964"/>
<stop offset="0.933" stop-color="#FF8140" stop-opacity="0.991"/>
<stop offset="1" stop-color="#FF8140"/>
</linearGradient>
<linearGradient id="paint2_linear_230_1113" x1="13.8263" y1="19.654" x2="2.5957" y2="34.9438" gradientUnits="userSpaceOnUse">
<stop stop-color="#FFD750" stop-opacity="0"/>
<stop offset="1" stop-color="#FFD750"/>
</linearGradient>
</defs>
</svg>
