<svg width="49" height="31" viewBox="0 0 49 31" fill="none" xmlns="http://www.w3.org/2000/svg">
<path d="M47.1008 0.191423C45.7713 6.69752 42.1627 11.6729 36.8449 15.5C43.1124 18.9445 47.1008 24.1111 49 30.8086H48.81C46.1511 30.8086 43.3024 30.8086 40.6435 30.8086C40.4535 30.8086 40.4535 30.8086 40.4535 30.6172C39.6938 28.321 38.7443 26.4072 37.0349 24.6851C34.9457 22.1975 32.2868 20.6666 29.0581 20.0926C28.8681 20.0926 28.6784 20.0926 28.4884 20.0926C28.2984 20.0926 28.2984 20.0926 28.1086 20.0926V31H27.9186C26.3992 31 24.8797 31 23.3605 30.8086C20.1319 30.4257 16.903 29.4691 14.0543 27.9382C12.1551 26.9815 10.4457 25.642 8.92646 24.1111C7.02705 22.1975 5.31784 19.9011 4.17836 17.605C2.65892 14.7345 1.7093 11.8641 1.13954 8.9939C0.759678 7.08013 0.379839 4.9754 0.189919 2.87043C0.189919 1.91355 0.18992 1.14808 0 0.191423V0H8.3565C8.3565 0.382619 8.3565 0.574041 8.3565 0.956885C8.3565 2.87043 8.54649 4.78397 8.92646 6.5061C9.30621 8.99391 10.0659 11.2901 11.2054 13.5865C12.3449 15.8826 13.8643 17.7962 15.9535 19.3271C17.093 20.0926 18.2325 20.858 19.5619 21.2406C19.5619 21.2406 19.5619 21.2406 19.7519 21.2406V0.191423H27.7287V12.247C27.9186 12.247 28.2984 12.247 28.4884 12.0555C30.0078 11.6729 31.3373 10.9074 32.4768 10.142C34.186 8.80248 35.7054 7.08014 36.8449 4.9754C37.7946 3.44447 38.3643 1.91355 38.9341 0.191423C38.9341 0.191423 38.9341 0.191422 38.9341 0H47.1008V0.191423Z" fill="#AC7C4C"/>
</svg>
