<svg width="40" height="40" viewBox="0 0 40 40" fill="none" xmlns="http://www.w3.org/2000/svg">
<circle cx="20" cy="20" r="20" fill="#AC7C4C"/>
<path d="M30.1473 13.0853C29.5504 15.9845 27.9302 18.2016 25.5426 19.907C28.3566 21.4419 30.1473 23.7442 31 26.7287H30.9147C29.7209 26.7287 28.4419 26.7287 27.2481 26.7287C27.1628 26.7287 27.1628 26.7287 27.1628 26.6434C26.8217 25.6202 26.3954 24.7674 25.6279 24C24.6899 22.8915 23.4961 22.2093 22.0465 21.9535C21.9612 21.9535 21.876 21.9535 21.7907 21.9535C21.7054 21.9535 21.7054 21.9535 21.6202 21.9535V26.814H21.5349C20.8527 26.814 20.1705 26.814 19.4884 26.7287C18.0388 26.5581 16.5891 26.1318 15.3101 25.4496C14.4574 25.0233 13.6899 24.4264 13.0078 23.7442C12.155 22.8915 11.3876 21.8682 10.876 20.845C10.1938 19.5659 9.76744 18.2868 9.51163 17.0078C9.34108 16.155 9.17054 15.2171 9.08527 14.2791C9.08527 13.8527 9.08527 13.5116 9 13.0853V13H12.7519C12.7519 13.1705 12.7519 13.2558 12.7519 13.4264C12.7519 14.2791 12.8372 15.1318 13.0078 15.8992C13.1783 17.0078 13.5194 18.031 14.031 19.0543C14.5426 20.0775 15.2248 20.9302 16.1628 21.6124C16.6744 21.9535 17.186 22.2946 17.7829 22.4651C17.7829 22.4651 17.7829 22.4651 17.8682 22.4651V13.0853H21.4496V18.4574C21.5349 18.4574 21.7054 18.4574 21.7907 18.3721C22.4729 18.2016 23.0698 17.8605 23.5814 17.5194C24.3488 16.9225 25.031 16.155 25.5426 15.2171C25.969 14.5349 26.2248 13.8527 26.4806 13.0853C26.4806 13.0853 26.4806 13.0853 26.4806 13H30.1473V13.0853Z" fill="white"/>
</svg>
