<svg width="38" height="40" viewBox="0 0 38 40" fill="none" xmlns="http://www.w3.org/2000/svg">
<path d="M35.9781 17.5505C36.8669 27.0222 30.1605 35.5259 20.9954 36.5284C18.0892 36.8463 15.2787 36.3648 12.7738 35.2716L3.86402 39.3143L6.0001 29.7742C4.24186 27.3568 3.08546 24.4212 2.78159 21.1832C1.8923 11.7072 8.6019 3.20752 17.7741 2.20422C26.9393 1.20169 35.0889 8.07598 35.9781 17.5505ZM18.0306 4.93727C10.3376 5.77876 4.6786 12.9327 5.42574 20.8939C5.72244 24.0555 6.98574 26.8712 8.87685 29.0666L7.64 34.601L12.8373 32.2486C15.1794 33.5167 17.901 34.0984 20.7381 33.7881C28.4256 32.9472 34.0829 25.7904 33.3357 17.8292C32.5898 9.88113 25.718 4.09638 18.0306 4.93727ZM28.1306 22.4037C28.0159 22.2428 27.7357 22.1681 27.313 21.986C26.8749 21.8219 24.7886 21.0343 24.3925 20.9382C24.0144 20.8372 23.7374 20.7978 23.5062 21.2457C23.262 21.6921 22.5813 22.7334 22.3718 23.0336C22.1472 23.3398 21.9166 23.4007 21.4942 23.2363C21.0776 23.0729 19.7171 22.7709 18.0311 21.5021C16.7212 20.5259 15.7708 19.2403 15.4955 18.839C15.2134 18.4413 15.4063 18.1918 15.5898 17.9627C15.7621 17.7511 15.9518 17.4219 16.1303 17.1563C16.3176 16.8911 16.3675 16.7107 16.4752 16.4171C16.5834 16.1147 16.4916 15.8801 16.3712 15.6737C16.2515 15.4748 15.2378 13.4993 14.8233 12.692C14.4021 11.8884 14.0828 12.0643 13.8474 12.09C13.6023 12.1168 13.3342 12.1106 13.0581 12.1408C12.7905 12.1701 12.3578 12.3212 12.0203 12.7896C11.6917 13.2466 10.732 14.3792 10.9265 16.4517C11.1205 18.5183 12.7655 20.367 12.9999 20.6201C13.229 20.8767 16.2472 24.9685 20.5457 26.2006C24.8385 27.4334 24.7862 26.8771 25.5319 26.7244C26.2592 26.5737 27.8449 25.4393 28.0887 24.428C28.3252 23.4011 28.247 22.5674 28.1306 22.4037Z" fill="#AC7C4C"/>
</svg>
