<svg width="40" height="40" viewBox="0 0 40 40" fill="none" xmlns="http://www.w3.org/2000/svg">
<circle cx="20" cy="20" r="20" fill="#AC7C4C"/>
<path d="M20.3 9.16638C15.3 9.16638 11.3 13.3142 11.3 18.3952C11.3 20.0543 11.7 21.7134 12.5 23.0614L11 27.8314C11 27.9351 11 28.0388 11.1 28.0388C11.1 28.0388 11.2 28.1425 11.3 28.1425C11.3 28.1425 11.3 28.1425 11.4 28.1425L16.1 26.587C17.4 27.3129 18.9 27.7277 20.4 27.7277C25.4 27.7277 29.4 23.5799 29.4 18.4989C29.3 13.3142 25.3 9.16638 20.3 9.16638Z" fill="white"/>
<path d="M24.5 20.0543C24.5 20.0543 23.1 19.3285 22.9 19.2248C22.8 19.2248 22.7 19.1211 22.6 19.1211C22.4 19.1211 22.3 19.2248 22.2 19.4322C22.1 19.6395 21.7 20.158 21.5 20.2617C21.5 20.2617 21.5 20.2617 21.4 20.2617C21.4 20.2617 21.2 20.158 21.1 20.158C19.7 19.5358 18.6 17.9804 18.4 17.6693V17.5657L18.5 17.462C18.6 17.3583 18.7 17.2546 18.7 17.1509L18.8 17.0472C19 17.1509 19.1 17.0472 19.1 16.9435V16.8398C19.2 16.5287 19.1 16.3213 19.1 16.2176C19.1 16.1139 18.5 14.7659 18.4 14.5585C18.3 14.2474 18.1 14.04 17.9 14.04C17.9 14.04 17.9 14.04 17.8 14.04C17.7 14.1437 17 14.1437 16.7 14.3511C16.4 14.5585 15.8 15.1807 15.8 16.425C15.8 17.462 16.4 18.4989 16.7 18.81C16.7 18.81 16.7 18.81 16.7 18.9137C17.8 20.5728 19.1 21.7134 20.4 22.2319C21.7 22.7504 22.3 22.8541 22.7 22.8541C22.8 22.8541 23 22.8541 23.1 22.8541H23.2C23.6 22.8541 24.6 22.3356 24.9 21.6097C25.1 21.0913 25.1 20.5728 25 20.3654C24.9 20.2617 24.7 20.158 24.5 20.0543Z" fill="#AC7C4C"/>
</svg>
